<?xml version="1.0" encoding="UTF-8" standalone="no"?>
<!-- Created with Inkscape (http://www.inkscape.org/) -->

<svg
   xmlns:dc="http://purl.org/dc/elements/1.1/"
   xmlns:cc="http://creativecommons.org/ns#"
   xmlns:rdf="http://www.w3.org/1999/02/22-rdf-syntax-ns#"
   xmlns:svg="http://www.w3.org/2000/svg"
   xmlns="http://www.w3.org/2000/svg"
   xmlns:sodipodi="http://sodipodi.sourceforge.net/DTD/sodipodi-0.dtd"
   xmlns:inkscape="http://www.inkscape.org/namespaces/inkscape"
   id="svg4874"
   height="96"
   viewBox="0 0 96 96.000001"
   width="96"
   version="1.1"
   sodipodi:docname="network-wifi-symbolic.svg"
   inkscape:version="0.92.3 (2405546, 2018-03-11)">
  <defs
     id="defs9" />
  <sodipodi:namedview
     pagecolor="#ffffff"
     bordercolor="#666666"
     borderopacity="1"
     objecttolerance="10"
     gridtolerance="10"
     guidetolerance="10"
     inkscape:pageopacity="0"
     inkscape:pageshadow="2"
     inkscape:window-width="1294"
     inkscape:window-height="704"
     id="namedview7"
     showgrid="false"
     inkscape:zoom="2.4583333"
     inkscape:cx="44.949153"
     inkscape:cy="52.067797"
     inkscape:window-x="72"
     inkscape:window-y="27"
     inkscape:window-maximized="1"
     inkscape:current-layer="layer1" />
  <metadata
     id="metadata4879">
    <rdf:RDF>
      <cc:Work
         rdf:about="">
        <dc:format>image/svg+xml</dc:format>
        <dc:type
           rdf:resource="http://purl.org/dc/dcmitype/StillImage" />
        <dc:title />
      </cc:Work>
    </rdf:RDF>
  </metadata>
  <g
     id="layer1"
     transform="translate(67.857,-78.505)">
    <path
       id="path4197"
       style="color:#000000;fill:#808080"
       d="m 48,12.016 c -16.384,0 -32.768,6.242 -45.254,18.728 l 3.5352,3.535 c 23.062,-23.062 60.376,-23.062 83.438,0 l 3.537,-3.535 C 80.7702,18.258 64.3842,12.016 48.0002,12.016 Z m 0,14 c -12.801,0 -25.603,4.876 -35.355,14.629 l 3.535,3.535 c 17.594,-17.595 46.046,-17.595 63.64,0 l 3.535,-3.535 C 73.603,30.892 60.801,26.016 48,26.016 Z m 0,14 c -9.218,0 -18.436,3.508 -25.455,10.527 l 3.535,3.535 c 12.127,-12.127 31.713,-12.127 43.84,0 l 3.537,-3.535 C 66.438,43.524 57.218,40.016 48,40.016 Z m 0,14 c -5.636,0 -11.271,2.142 -15.557,6.427 l 3.536,3.536 c 6.659,-6.66 17.383,-6.66 24.042,0 l 3.536,-3.536 C 59.271,56.158 53.636,54.016 48,54.016 Z M 48,68 a 8,8 0 0 0 -8,8 8,8 0 0 0 8,8 8,8 0 0 0 8,-8 8,8 0 0 0 -8,-8 z"
       transform="translate(-67.857,78.505)"
       inkscape:connector-curvature="0"
       inkscape:label="path4197" />
  </g>
</svg>
