<?xml version="1.0" encoding="UTF-8" standalone="no"?>
<!-- Created with Inkscape (http://www.inkscape.org/) -->

<svg
   xmlns:dc="http://purl.org/dc/elements/1.1/"
   xmlns:cc="http://creativecommons.org/ns#"
   xmlns:rdf="http://www.w3.org/1999/02/22-rdf-syntax-ns#"
   xmlns:svg="http://www.w3.org/2000/svg"
   xmlns="http://www.w3.org/2000/svg"
   xmlns:xlink="http://www.w3.org/1999/xlink"
   xmlns:sodipodi="http://sodipodi.sourceforge.net/DTD/sodipodi-0.dtd"
   xmlns:inkscape="http://www.inkscape.org/namespaces/inkscape"
   inkscape:export-ydpi="90.000000"
   inkscape:export-xdpi="90.000000"
   width="400"
   height="300"
   id="svg11300"
   sodipodi:version="0.32"
   inkscape:version="0.92.3 (2405546, 2018-03-11)"
   sodipodi:docname="ide.svg"
   inkscape:output_extension="org.inkscape.output.svg.inkscape"
   version="1.0"
   style="display:inline;enable-background:new"
   inkscape:export-filename="/home/sam/suru-template.png">
  <title
     id="title3004">Suru Icon Theme Template</title>
  <sodipodi:namedview
     stroke="#ef2929"
     fill="#f57900"
     id="base"
     pagecolor="#ffffff"
     bordercolor="#000000"
     borderopacity="0.25490196"
     inkscape:pageopacity="0"
     inkscape:pageshadow="2"
     inkscape:zoom="1.4142136"
     inkscape:cx="243.80068"
     inkscape:cy="167.68596"
     inkscape:current-layer="layer7"
     showgrid="false"
     inkscape:grid-bbox="true"
     inkscape:document-units="px"
     inkscape:showpageshadow="false"
     inkscape:window-width="1294"
     inkscape:window-height="704"
     inkscape:window-x="72"
     inkscape:window-y="27"
     width="400px"
     height="300px"
     inkscape:snap-nodes="true"
     inkscape:snap-bbox="true"
     gridtolerance="10000"
     inkscape:object-nodes="false"
     inkscape:snap-grids="true"
     showguides="true"
     inkscape:guide-bbox="true"
     inkscape:window-maximized="1"
     inkscape:bbox-paths="true"
     inkscape:snap-bbox-midpoints="true"
     inkscape:snap-global="true"
     inkscape:object-paths="false"
     inkscape:snap-intersection-paths="false"
     inkscape:snap-smooth-nodes="false"
     inkscape:pagecheckerboard="false"
     showborder="false"
     inkscape:snap-midpoints="true">
    <inkscape:grid
       spacingy="1"
       spacingx="1"
       id="grid5883"
       type="xygrid"
       enabled="true"
       visible="true"
       empspacing="4"
       snapvisiblegridlinesonly="true"
       originx="0"
       originy="0" />
    <inkscape:grid
       type="xygrid"
       id="grid11592"
       empspacing="2"
       visible="true"
       enabled="false"
       spacingx="0.5"
       spacingy="0.5"
       color="#ff0000"
       opacity="0.1254902"
       empcolor="#ff0000"
       empopacity="0.25098039"
       snapvisiblegridlinesonly="true"
       originx="0"
       originy="0" />
  </sodipodi:namedview>
  <defs
     id="defs3">
    <linearGradient
       inkscape:collect="always"
       id="linearGradient1001">
      <stop
         style="stop-color:#065166;stop-opacity:1"
         offset="0"
         id="stop997" />
      <stop
         style="stop-color:#04303d;stop-opacity:1"
         offset="1"
         id="stop999" />
    </linearGradient>
    <linearGradient
       inkscape:collect="always"
       id="linearGradient927">
      <stop
         style="stop-color:#ffffff;stop-opacity:1;"
         offset="0"
         id="stop923" />
      <stop
         id="stop933"
         offset="0.125"
         style="stop-color:#ffffff;stop-opacity:0.09803922" />
      <stop
         id="stop931"
         offset="0.92500001"
         style="stop-color:#ffffff;stop-opacity:0.09803922" />
      <stop
         style="stop-color:#ffffff;stop-opacity:0.49803922"
         offset="1"
         id="stop925" />
    </linearGradient>
    <clipPath
       clipPathUnits="userSpaceOnUse"
       id="clipPath9430">
      <path
         sodipodi:nodetypes="sssssssss"
         inkscape:connector-curvature="0"
         id="path9432"
         d="m 166.0625,-196 h 179.875 C 491.2348,-196 512,-175.28677 512,-30.125 v 148.25 C 512,263.28618 491.2348,284 345.9375,284 H 166.0625 C 20.7652,284 0,263.28618 0,118.125 V -30.125 C 0,-175.28677 20.7652,-196 166.0625,-196 Z"
         style="color:#000000;display:inline;overflow:visible;visibility:visible;fill:#ffffff;fill-opacity:1;fill-rule:nonzero;stroke:none;stroke-width:1;marker:none;enable-background:new" />
    </clipPath>
    <linearGradient
       inkscape:collect="always"
       xlink:href="#linearGradient927"
       id="linearGradient929"
       x1="168"
       y1="239"
       x2="168"
       y2="279"
       gradientUnits="userSpaceOnUse"
       gradientTransform="matrix(-1,0,0,1,512,-175)" />
    <linearGradient
       inkscape:collect="always"
       xlink:href="#linearGradient927"
       id="linearGradient965"
       x1="112"
       y1="255"
       x2="112"
       y2="281"
       gradientUnits="userSpaceOnUse"
       gradientTransform="matrix(-1,0,0,1,448,-120)" />
    <linearGradient
       inkscape:collect="always"
       xlink:href="#linearGradient927"
       id="linearGradient1006"
       x1="64"
       y1="263"
       x2="64"
       y2="281"
       gradientUnits="userSpaceOnUse"
       gradientTransform="matrix(-1,0,0,1,396,-72)" />
    <linearGradient
       inkscape:collect="always"
       xlink:href="#linearGradient927"
       id="linearGradient1045"
       x1="760"
       y1="254"
       x2="760"
       y2="265"
       gradientUnits="userSpaceOnUse"
       gradientTransform="translate(-432,-16)" />
    <clipPath
       clipPathUnits="userSpaceOnUse"
       id="clipPath1082">
      <path
         sodipodi:nodetypes="sssssssss"
         inkscape:connector-curvature="0"
         id="path1084"
         d="M 361.9375,-212 C 507.2348,-212 528,-191.28677 528,-46.125 V 70.125 C 528,215.28618 507.2348,236 361.9375,236 H 214.0625 C 68.7652,236 48,215.28618 48,70.125 V -46.125 C 48,-191.28677 68.7652,-212 214.0625,-212 Z"
         style="display:inline;opacity:1;fill:#8c59d9;fill-opacity:1;stroke:none;stroke-width:2;stroke-linecap:round;stroke-linejoin:round;stroke-miterlimit:4;stroke-dasharray:none;stroke-dashoffset:0;stroke-opacity:1;enable-background:new" />
    </clipPath>
    <filter
       inkscape:collect="always"
       style="color-interpolation-filters:sRGB"
       id="filter4569"
       x="-0.0116"
       width="1.0232"
       y="-0.012428571"
       height="1.024857">
      <feGaussianBlur
         inkscape:collect="always"
         stdDeviation="1.16"
         id="feGaussianBlur4571" />
    </filter>
    <clipPath
       clipPathUnits="userSpaceOnUse"
       id="clipPath12953">
      <path
         sodipodi:nodetypes="cssssssccccssssssccccccc"
         inkscape:connector-curvature="0"
         id="path12955"
         d="m 151.92969,-92 c -15.09828,0.1746 -26.14597,-0.34952 -35.17969,4.63477 -4.51686,2.49213 -8.09058,6.70137 -10.06641,11.96484 -1.9758,5.2635 -2.68945,11.50931 -2.68945,19.40039 v 200.00586 c 0,7.89108 0.71365,14.13103 2.68945,19.39453 1.97583,5.26347 5.54955,9.4844 10.06641,11.97656 9.03372,4.98426 20.08141,4.44851 35.17969,4.62305 h 0.0352 24.01758 L 372,179.87109 c 9.26481,-0.1983 16.784,-0.92981 23.24414,-4.49414 4.51686,-2.49216 8.09061,-6.71309 10.06641,-11.97656 C 407.28635,158.13689 408,151.89694 408,144.00586 V -32 c 0,-7.89108 -0.71365,-14.13689 -2.68945,-19.40039 -1.9758,-5.2635 -5.54955,-9.47857 -10.06641,-11.9707 -9.03372,-4.98426 -20.08141,-4.45437 -35.17969,-4.62891 h -0.0352 -92.39258 l -24.25781,-24 h -91.41407 -0.0352 z"
         style="color:#000000;font-style:normal;font-variant:normal;font-weight:normal;font-stretch:normal;font-size:medium;line-height:normal;font-family:sans-serif;text-indent:0;text-align:start;text-decoration:none;text-decoration-line:none;text-decoration-style:solid;text-decoration-color:#000000;letter-spacing:normal;word-spacing:normal;text-transform:none;writing-mode:lr-tb;direction:ltr;baseline-shift:baseline;text-anchor:start;white-space:normal;shape-padding:0;clip-rule:nonzero;display:inline;overflow:visible;visibility:visible;opacity:1;isolation:auto;mix-blend-mode:normal;color-interpolation:sRGB;color-interpolation-filters:linearRGB;solid-color:#000000;solid-opacity:1;fill:#e7e3df;fill-opacity:1;fill-rule:nonzero;stroke:none;stroke-width:12.00000191;stroke-linecap:butt;stroke-linejoin:miter;stroke-miterlimit:4;stroke-dasharray:none;stroke-dashoffset:0;stroke-opacity:1;marker:none;color-rendering:auto;image-rendering:auto;shape-rendering:auto;text-rendering:auto;enable-background:accumulate" />
    </clipPath>
    <clipPath
       clipPathUnits="userSpaceOnUse"
       id="clipPath12953-7">
      <path
         sodipodi:nodetypes="cssssssccccssssssccccccc"
         inkscape:connector-curvature="0"
         id="path12955-5"
         d="m 151.92969,-92 c -15.09828,0.1746 -26.14597,-0.34952 -35.17969,4.63477 -4.51686,2.49213 -8.09058,6.70137 -10.06641,11.96484 -1.9758,5.2635 -2.68945,11.50931 -2.68945,19.40039 v 200.00586 c 0,7.89108 0.71365,14.13103 2.68945,19.39453 1.97583,5.26347 5.54955,9.4844 10.06641,11.97656 9.03372,4.98426 20.08141,4.44851 35.17969,4.62305 h 0.0352 24.01758 L 372,179.87109 c 9.26481,-0.1983 16.784,-0.92981 23.24414,-4.49414 4.51686,-2.49216 8.09061,-6.71309 10.06641,-11.97656 C 407.28635,158.13689 408,151.89694 408,144.00586 V -32 c 0,-7.89108 -0.71365,-14.13689 -2.68945,-19.40039 -1.9758,-5.2635 -5.54955,-9.47857 -10.06641,-11.9707 -9.03372,-4.98426 -20.08141,-4.45437 -35.17969,-4.62891 h -0.0352 -92.39258 l -24.25781,-24 h -91.41407 -0.0352 z"
         style="color:#000000;font-style:normal;font-variant:normal;font-weight:normal;font-stretch:normal;font-size:medium;line-height:normal;font-family:sans-serif;text-indent:0;text-align:start;text-decoration:none;text-decoration-line:none;text-decoration-style:solid;text-decoration-color:#000000;letter-spacing:normal;word-spacing:normal;text-transform:none;writing-mode:lr-tb;direction:ltr;baseline-shift:baseline;text-anchor:start;white-space:normal;shape-padding:0;clip-rule:nonzero;display:inline;overflow:visible;visibility:visible;opacity:1;isolation:auto;mix-blend-mode:normal;color-interpolation:sRGB;color-interpolation-filters:linearRGB;solid-color:#000000;solid-opacity:1;fill:#e7e3df;fill-opacity:1;fill-rule:nonzero;stroke:none;stroke-width:12.00000191;stroke-linecap:butt;stroke-linejoin:miter;stroke-miterlimit:4;stroke-dasharray:none;stroke-dashoffset:0;stroke-opacity:1;marker:none;color-rendering:auto;image-rendering:auto;shape-rendering:auto;text-rendering:auto;enable-background:accumulate" />
    </clipPath>
    <clipPath
       clipPathUnits="userSpaceOnUse"
       id="clipPath12953-6">
      <path
         sodipodi:nodetypes="cssssssccccssssssccccccc"
         inkscape:connector-curvature="0"
         id="path12955-2"
         d="m 151.92969,-92 c -15.09828,0.1746 -26.14597,-0.34952 -35.17969,4.63477 -4.51686,2.49213 -8.09058,6.70137 -10.06641,11.96484 -1.9758,5.2635 -2.68945,11.50931 -2.68945,19.40039 v 200.00586 c 0,7.89108 0.71365,14.13103 2.68945,19.39453 1.97583,5.26347 5.54955,9.4844 10.06641,11.97656 9.03372,4.98426 20.08141,4.44851 35.17969,4.62305 h 0.0352 24.01758 L 372,179.87109 c 9.26481,-0.1983 16.784,-0.92981 23.24414,-4.49414 4.51686,-2.49216 8.09061,-6.71309 10.06641,-11.97656 C 407.28635,158.13689 408,151.89694 408,144.00586 V -32 c 0,-7.89108 -0.71365,-14.13689 -2.68945,-19.40039 -1.9758,-5.2635 -5.54955,-9.47857 -10.06641,-11.9707 -9.03372,-4.98426 -20.08141,-4.45437 -35.17969,-4.62891 h -0.0352 -92.39258 l -24.25781,-24 h -91.41407 -0.0352 z"
         style="color:#000000;font-style:normal;font-variant:normal;font-weight:normal;font-stretch:normal;font-size:medium;line-height:normal;font-family:sans-serif;text-indent:0;text-align:start;text-decoration:none;text-decoration-line:none;text-decoration-style:solid;text-decoration-color:#000000;letter-spacing:normal;word-spacing:normal;text-transform:none;writing-mode:lr-tb;direction:ltr;baseline-shift:baseline;text-anchor:start;white-space:normal;shape-padding:0;clip-rule:nonzero;display:inline;overflow:visible;visibility:visible;opacity:1;isolation:auto;mix-blend-mode:normal;color-interpolation:sRGB;color-interpolation-filters:linearRGB;solid-color:#000000;solid-opacity:1;fill:#e7e3df;fill-opacity:1;fill-rule:nonzero;stroke:none;stroke-width:12.00000191;stroke-linecap:butt;stroke-linejoin:miter;stroke-miterlimit:4;stroke-dasharray:none;stroke-dashoffset:0;stroke-opacity:1;marker:none;color-rendering:auto;image-rendering:auto;shape-rendering:auto;text-rendering:auto;enable-background:accumulate" />
    </clipPath>
    <clipPath
       clipPathUnits="userSpaceOnUse"
       id="clipPath1110">
      <path
         style="display:inline;opacity:1;fill:#464646;fill-opacity:1;stroke:none;stroke-width:2;stroke-linecap:round;stroke-linejoin:round;stroke-miterlimit:4;stroke-dasharray:none;stroke-dashoffset:0;stroke-opacity:1;enable-background:new"
         d="M 188.96875,44 C 261.6174,44 272,54.356615 272,126.9375 v 58.125 C 272,257.64309 261.6174,268 188.96875,268 h -73.9375 C 42.3826,268 32,257.64309 32,185.0625 v -58.125 C 32,54.356615 42.3826,44 115.03125,44 Z"
         id="path1112"
         inkscape:connector-curvature="0"
         sodipodi:nodetypes="sssssssss" />
    </clipPath>
    <clipPath
       clipPathUnits="userSpaceOnUse"
       id="clipPath974">
      <path
         sodipodi:nodetypes="cccsccscccccccc"
         inkscape:connector-curvature="0"
         id="path976"
         d="M 95.964844,84 C 88.415704,84.0873 82.89186,83.826214 78.375,86.318359 c -2.25843,1.246065 -4.045288,3.350687 -5.033203,5.982422 -0.9879,2.63175 -1.345703,5.753679 -1.345703,9.699219 v 34 H 232 v -18 c 0,-3.94554 -0.35779,-7.06941 -1.3457,-9.70117 -0.9879,-2.63175 -2.77478,-4.73831 -5.03321,-5.98438 -4.51686,-2.49212 -10.0407,-2.22718 -17.58984,-2.31445 h -0.0176 -56.19531 L 135.68945,84 H 95.982422 Z"
         style="color:#000000;font-style:normal;font-variant:normal;font-weight:normal;font-stretch:normal;font-size:medium;line-height:normal;font-family:sans-serif;text-indent:0;text-align:start;text-decoration:none;text-decoration-line:none;text-decoration-style:solid;text-decoration-color:#000000;letter-spacing:normal;word-spacing:normal;text-transform:none;writing-mode:lr-tb;direction:ltr;baseline-shift:baseline;text-anchor:start;white-space:normal;shape-padding:0;clip-rule:nonzero;display:inline;overflow:visible;visibility:visible;opacity:1;isolation:auto;mix-blend-mode:normal;color-interpolation:sRGB;color-interpolation-filters:linearRGB;solid-color:#000000;solid-opacity:1;fill:#e3dfd5;fill-opacity:1;fill-rule:nonzero;stroke:none;stroke-width:12.00000191;stroke-linecap:butt;stroke-linejoin:miter;stroke-miterlimit:4;stroke-dasharray:none;stroke-dashoffset:0;stroke-opacity:1;marker:none;color-rendering:auto;image-rendering:auto;shape-rendering:auto;text-rendering:auto;enable-background:accumulate" />
    </clipPath>
    <linearGradient
       inkscape:collect="always"
       xlink:href="#linearGradient1001"
       id="linearGradient1003"
       x1="16"
       y1="28"
       x2="288"
       y2="284"
       gradientUnits="userSpaceOnUse" />
    <clipPath
       clipPathUnits="userSpaceOnUse"
       id="clipPath1025">
      <path
         id="path1027"
         d="M 111.94141,84 C 99.359506,84.145 90.1531,83.713998 82.625,87.867188 c -3.7641,2.0768 -6.751838,5.574737 -8.398438,9.960937 C 72.580062,102.21433 72,107.4241 72,114 v 42 h 160 v -26 c 0,-6.5759 -0.57996,-11.78566 -2.22656,-16.17188 -0.205,-0.5455 -0.47919,-1.03993 -0.74219,-1.54296 -0.1,-0.1848 -0.17844,-0.38051 -0.27344,-0.56641 -1.727,-3.38752 -4.25471,-6.14522 -7.38281,-7.87109 C 213.8463,99.694146 204.64049,100.1454 192.05859,100 H 192 151.66797 L 135.45312,84 h -23.49218 z"
         style="color:#000000;font-style:normal;font-variant:normal;font-weight:normal;font-stretch:normal;font-size:medium;line-height:normal;font-family:sans-serif;font-variant-ligatures:none;font-variant-position:normal;font-variant-caps:normal;font-variant-numeric:normal;font-variant-alternates:normal;font-feature-settings:normal;text-indent:0;text-align:start;text-decoration:none;text-decoration-line:none;text-decoration-style:solid;text-decoration-color:#000000;letter-spacing:normal;word-spacing:normal;text-transform:none;writing-mode:lr-tb;direction:ltr;baseline-shift:baseline;text-anchor:start;white-space:normal;shape-padding:0;clip-rule:nonzero;display:inline;overflow:visible;visibility:visible;opacity:1;isolation:auto;mix-blend-mode:normal;color-interpolation:sRGB;color-interpolation-filters:linearRGB;solid-color:#000000;solid-opacity:1;fill:#e3dfd5;fill-opacity:1;fill-rule:nonzero;stroke:none;stroke-width:4.00000048;stroke-linecap:butt;stroke-linejoin:miter;stroke-miterlimit:4;stroke-dasharray:none;stroke-dashoffset:0;stroke-opacity:1;marker:none;color-rendering:auto;image-rendering:auto;shape-rendering:auto;text-rendering:auto;enable-background:accumulate"
         inkscape:connector-curvature="0" />
    </clipPath>
    <filter
       inkscape:collect="always"
       style="color-interpolation-filters:sRGB"
       id="filter935"
       x="-0.0232"
       width="1.0464"
       y="-0.024857143"
       height="1.0497143">
      <feGaussianBlur
         inkscape:collect="always"
         stdDeviation="2.32"
         id="feGaussianBlur937" />
    </filter>
    <linearGradient
       inkscape:collect="always"
       xlink:href="#linearGradient1013"
       id="linearGradient1108"
       x1="296"
       y1="-212"
       x2="296"
       y2="236"
       gradientUnits="userSpaceOnUse" />
    <linearGradient
       id="linearGradient1013"
       inkscape:collect="always">
      <stop
         id="stop1005"
         offset="0"
         style="stop-color:#ffffff;stop-opacity:1;" />
      <stop
         style="stop-color:#ffffff;stop-opacity:0.09803922"
         offset="0.125"
         id="stop1007" />
      <stop
         style="stop-color:#000000;stop-opacity:0.09803922"
         offset="0.92500001"
         id="stop1009" />
      <stop
         id="stop1011"
         offset="1"
         style="stop-color:#000000;stop-opacity:0.49803922" />
    </linearGradient>
    <clipPath
       clipPathUnits="userSpaceOnUse"
       id="clipPath1082-3">
      <path
         sodipodi:nodetypes="sssssssss"
         inkscape:connector-curvature="0"
         id="path1084-6"
         d="M 361.9375,-212 C 507.2348,-212 528,-191.28677 528,-46.125 V 70.125 C 528,215.28618 507.2348,236 361.9375,236 H 214.0625 C 68.7652,236 48,215.28618 48,70.125 V -46.125 C 48,-191.28677 68.7652,-212 214.0625,-212 Z"
         style="display:inline;opacity:1;fill:#8c59d9;fill-opacity:1;stroke:none;stroke-width:2;stroke-linecap:round;stroke-linejoin:round;stroke-miterlimit:4;stroke-dasharray:none;stroke-dashoffset:0;stroke-opacity:1;enable-background:new" />
    </clipPath>
  </defs>
  <metadata
     id="metadata4">
    <rdf:RDF>
      <cc:Work
         rdf:about="">
        <dc:format>image/svg+xml</dc:format>
        <dc:type
           rdf:resource="http://purl.org/dc/dcmitype/StillImage" />
        <dc:creator>
          <cc:Agent>
            <dc:title>Sam Hewitt</dc:title>
          </cc:Agent>
        </dc:creator>
        <dc:source />
        <cc:license
           rdf:resource="http://creativecommons.org/licenses/by-sa/4.0/" />
        <dc:title>Suru Icon Theme Template</dc:title>
        <dc:subject>
          <rdf:Bag />
        </dc:subject>
        <dc:date />
        <dc:rights>
          <cc:Agent>
            <dc:title />
          </cc:Agent>
        </dc:rights>
        <dc:publisher>
          <cc:Agent>
            <dc:title />
          </cc:Agent>
        </dc:publisher>
        <dc:identifier />
        <dc:relation />
        <dc:language />
        <dc:coverage />
        <dc:description />
        <dc:contributor>
          <cc:Agent>
            <dc:title />
          </cc:Agent>
        </dc:contributor>
      </cc:Work>
      <cc:Work
         rdf:about="">
        <dc:format>image/svg+xml</dc:format>
        <dc:type
           rdf:resource="http://purl.org/dc/dcmitype/StillImage" />
      </cc:Work>
      <cc:License
         rdf:about="http://creativecommons.org/licenses/by-sa/4.0/">
        <cc:permits
           rdf:resource="http://creativecommons.org/ns#Reproduction" />
        <cc:permits
           rdf:resource="http://creativecommons.org/ns#Distribution" />
        <cc:requires
           rdf:resource="http://creativecommons.org/ns#Notice" />
        <cc:requires
           rdf:resource="http://creativecommons.org/ns#Attribution" />
        <cc:permits
           rdf:resource="http://creativecommons.org/ns#DerivativeWorks" />
        <cc:requires
           rdf:resource="http://creativecommons.org/ns#ShareAlike" />
      </cc:License>
    </rdf:RDF>
  </metadata>
  <g
     style="display:inline"
     inkscape:groupmode="layer"
     inkscape:label="Icon"
     id="layer1">
    <g
       style="display:none"
       inkscape:label="Baseplate"
       id="layer7"
       inkscape:groupmode="layer">
      <text
         y="-8.2548828"
         xml:space="preserve"
         x="19.006836"
         style="font-style:normal;font-variant:normal;font-weight:normal;font-stretch:normal;line-height:0%;font-family:'DejaVu Sans';-inkscape-font-specification:'DejaVu Sans';display:inline;fill:#000000;fill-opacity:1;stroke:none;enable-background:new"
         inkscape:label="context"
         id="context"><tspan
           style="font-style:normal;font-variant:normal;font-weight:normal;font-stretch:normal;font-size:18px;line-height:1.25;font-family:'DejaVu Sans';-inkscape-font-specification:'DejaVu Sans'"
           y="-8.2548828"
           x="19.006836"
           sodipodi:role="line"
           id="tspan3933">apps</tspan></text>
      <text
         y="-8.2548828"
         xml:space="preserve"
         x="146.48828"
         style="font-style:normal;font-variant:normal;font-weight:bold;font-stretch:normal;line-height:0%;font-family:'DejaVu Sans';-inkscape-font-specification:'DejaVu Sans Bold';text-align:start;writing-mode:lr-tb;text-anchor:start;display:inline;fill:#000000;fill-opacity:1;stroke:none;enable-background:new"
         inkscape:label="icon-name"
         id="icon-name"><tspan
           style="font-style:normal;font-variant:normal;font-weight:bold;font-stretch:normal;font-size:18px;line-height:1.25;font-family:'DejaVu Sans';-inkscape-font-specification:'DejaVu Sans Bold'"
           y="-8.2548828"
           x="146.48828"
           sodipodi:role="line"
           id="tspan3937">mplab_ide</tspan></text>
      <rect
         style="display:inline;overflow:visible;visibility:visible;fill:#cdcdcd;fill-opacity:1;fill-rule:nonzero;stroke:none;stroke-width:2;marker:none;enable-background:accumulate"
         id="rect16x16"
         width="16"
         height="16"
         x="320"
         y="236"
         inkscape:label="16x16" />
      <rect
         style="display:inline;overflow:visible;visibility:visible;fill:#cdcdcd;fill-opacity:1;fill-rule:nonzero;stroke:none;stroke-width:2;marker:none;enable-background:accumulate"
         id="rect24x24"
         width="24"
         height="24"
         x="320"
         y="188"
         inkscape:label="24x24" />
      <rect
         style="display:inline;overflow:visible;visibility:visible;fill:#cdcdcd;fill-opacity:1;fill-rule:nonzero;stroke:none;stroke-width:2;marker:none;enable-background:accumulate"
         id="rect32x32"
         width="32"
         height="32"
         x="320"
         y="132"
         inkscape:label="32x32" />
      <rect
         inkscape:label="48x48"
         y="60"
         x="320"
         height="48"
         width="48"
         id="rect48x48"
         style="display:inline;overflow:visible;visibility:visible;fill:#cdcdcd;fill-opacity:1;fill-rule:nonzero;stroke:none;stroke-width:2;marker:none;enable-background:accumulate" />
      <rect
         style="display:inline;overflow:visible;visibility:visible;fill:#cdcdcd;fill-opacity:1;fill-rule:nonzero;stroke:none;stroke-width:2;marker:none;enable-background:accumulate"
         id="rect3951"
         width="256"
         height="256"
         x="24"
         y="28"
         inkscape:label="48x48" />
    </g>
    <g
       inkscape:groupmode="layer"
       id="layer4"
       inkscape:label="Shadows"
       style="display:inline">
      <path
         style="display:inline;opacity:0.2;fill:#000000;fill-opacity:1;stroke:none;stroke-width:2;stroke-linecap:round;stroke-linejoin:round;stroke-miterlimit:4;stroke-dasharray:none;stroke-dashoffset:0;stroke-opacity:1;filter:url(#filter935);enable-background:new"
         d="m 188.96876,45.999995 c 72.64865,0 83.03125,10.356615 83.03125,82.937505 v 58.125 c 0,72.58059 -10.3826,82.9375 -83.03125,82.9375 h -73.9375 C 42.382606,270 32.000006,259.64309 32.000006,187.0625 v -58.125 c 0,-72.58089 10.3826,-82.937505 83.031254,-82.937505 z"
         id="path933"
         inkscape:connector-curvature="0"
         sodipodi:nodetypes="sssssssss" />
      <path
         style="color:#000000;font-style:normal;font-variant:normal;font-weight:normal;font-stretch:normal;font-size:medium;line-height:normal;font-family:sans-serif;font-variant-ligatures:normal;font-variant-position:normal;font-variant-caps:normal;font-variant-numeric:normal;font-variant-alternates:normal;font-feature-settings:normal;text-indent:0;text-align:start;text-decoration:none;text-decoration-line:none;text-decoration-style:solid;text-decoration-color:#000000;letter-spacing:normal;word-spacing:normal;text-transform:none;writing-mode:lr-tb;direction:ltr;text-orientation:mixed;dominant-baseline:auto;baseline-shift:baseline;text-anchor:start;white-space:normal;shape-padding:0;clip-rule:nonzero;display:inline;overflow:visible;visibility:visible;opacity:0.2;isolation:auto;mix-blend-mode:normal;color-interpolation:sRGB;color-interpolation-filters:linearRGB;solid-color:#000000;solid-opacity:1;vector-effect:none;fill:#000000;fill-opacity:1;fill-rule:nonzero;stroke:none;stroke-width:1;stroke-linecap:round;stroke-linejoin:round;stroke-miterlimit:4;stroke-dasharray:none;stroke-dashoffset:0;stroke-opacity:1;color-rendering:auto;image-rendering:auto;shape-rendering:auto;text-rendering:auto;enable-background:accumulate"
         d="m 351.93164,63 c 6.83457,0 10.87325,0.44856 13.24609,2.81836 C 367.55058,68.18816 368,72.22248 368,79.05078 v 11.89844 c 0,6.82827 -0.44942,10.86261 -2.82227,13.23242 C 362.80489,106.55145 358.76621,107 351.93164,107 h -15.86328 c -6.83457,0 -10.87325,-0.44855 -13.24609,-2.81836 C 320.44942,101.81183 320,97.77749 320,90.94922 V 79.05078 c 0,-6.8283 0.44942,-10.86262 2.82227,-13.23242 C 325.19511,63.44856 329.23379,63 336.06836,63 Z"
         id="path907"
         inkscape:connector-curvature="0"
         sodipodi:nodetypes="scsscsscsscss" />
      <path
         style="color:#000000;font-style:normal;font-variant:normal;font-weight:normal;font-stretch:normal;font-size:medium;line-height:normal;font-family:sans-serif;font-variant-ligatures:normal;font-variant-position:normal;font-variant-caps:normal;font-variant-numeric:normal;font-variant-alternates:normal;font-feature-settings:normal;text-indent:0;text-align:start;text-decoration:none;text-decoration-line:none;text-decoration-style:solid;text-decoration-color:#000000;letter-spacing:normal;word-spacing:normal;text-transform:none;writing-mode:lr-tb;direction:ltr;text-orientation:mixed;dominant-baseline:auto;baseline-shift:baseline;text-anchor:start;white-space:normal;shape-padding:0;clip-rule:nonzero;display:inline;overflow:visible;visibility:visible;opacity:0.2;isolation:auto;mix-blend-mode:normal;color-interpolation:sRGB;color-interpolation-filters:linearRGB;solid-color:#000000;solid-opacity:1;vector-effect:none;fill:#000000;fill-opacity:1;fill-rule:nonzero;stroke:none;stroke-width:1;stroke-linecap:round;stroke-linejoin:round;stroke-miterlimit:4;stroke-dasharray:none;stroke-dashoffset:0;stroke-opacity:1;color-rendering:auto;image-rendering:auto;shape-rendering:auto;text-rendering:auto;enable-background:new"
         d="m 341.12109,134 c 4.56431,0 7.30422,0.28679 8.94727,1.92773 1.64305,1.64095 1.93164,4.37931 1.93164,8.93946 v 8.26562 c 0,4.56013 -0.28859,7.29851 -1.93164,8.93946 C 348.42531,163.71321 345.6854,164 341.12109,164 h -10.24218 c -4.5643,0 -7.30422,-0.28679 -8.94727,-1.92773 C 320.28859,160.43132 320,157.69294 320,153.13281 v -8.26562 c 0,-4.56015 0.28859,-7.29851 1.93164,-8.93946 C 323.57469,134.28679 326.31461,134 330.87891,134 Z"
         id="path1011"
         inkscape:connector-curvature="0"
         sodipodi:nodetypes="scsscsscsscss" />
      <path
         style="color:#000000;font-style:normal;font-variant:normal;font-weight:normal;font-stretch:normal;font-size:medium;line-height:normal;font-family:sans-serif;font-variant-ligatures:normal;font-variant-position:normal;font-variant-caps:normal;font-variant-numeric:normal;font-variant-alternates:normal;font-feature-settings:normal;text-indent:0;text-align:start;text-decoration:none;text-decoration-line:none;text-decoration-style:solid;text-decoration-color:#000000;letter-spacing:normal;word-spacing:normal;text-transform:none;writing-mode:lr-tb;direction:ltr;text-orientation:mixed;dominant-baseline:auto;baseline-shift:baseline;text-anchor:start;white-space:normal;shape-padding:0;clip-rule:nonzero;display:inline;overflow:visible;visibility:visible;opacity:0.2;isolation:auto;mix-blend-mode:normal;color-interpolation:sRGB;color-interpolation-filters:linearRGB;solid-color:#000000;solid-opacity:1;vector-effect:none;fill:#000000;fill-opacity:1;fill-rule:nonzero;stroke:none;stroke-width:1;stroke-linecap:round;stroke-linejoin:round;stroke-miterlimit:4;stroke-dasharray:none;stroke-dashoffset:0;stroke-opacity:1;color-rendering:auto;image-rendering:auto;shape-rendering:auto;text-rendering:auto;enable-background:new"
         d="m 335.71484,190 c 3.42917,1e-5 5.52264,0.20591 6.80078,1.48242 1.27815,1.27651 1.48438,3.3669 1.48438,6.79297 v 5.44922 c 0,3.42606 -0.20623,5.51645 -1.48438,6.79297 C 341.23748,211.79409 339.14401,212 335.71484,212 h -7.42968 c -3.42917,0 -5.52263,-0.20591 -6.80079,-1.48242 C 320.20622,209.24106 320,207.15067 320,203.72461 v -5.44922 c 0,-3.42607 0.20622,-5.51646 1.48437,-6.79297 1.27816,-1.27651 3.37162,-1.48243 6.80079,-1.48242 z"
         id="path1013"
         inkscape:connector-curvature="0"
         sodipodi:nodetypes="cssscsscssscc" />
      <path
         style="color:#000000;font-style:normal;font-variant:normal;font-weight:normal;font-stretch:normal;font-size:medium;line-height:normal;font-family:sans-serif;font-variant-ligatures:normal;font-variant-position:normal;font-variant-caps:normal;font-variant-numeric:normal;font-variant-alternates:normal;font-feature-settings:normal;text-indent:0;text-align:start;text-decoration:none;text-decoration-line:none;text-decoration-style:solid;text-decoration-color:#000000;letter-spacing:normal;word-spacing:normal;text-transform:none;writing-mode:lr-tb;direction:ltr;text-orientation:mixed;dominant-baseline:auto;baseline-shift:baseline;text-anchor:start;white-space:normal;shape-padding:0;clip-rule:nonzero;display:inline;overflow:visible;visibility:visible;opacity:0.2;isolation:auto;mix-blend-mode:normal;color-interpolation:sRGB;color-interpolation-filters:linearRGB;solid-color:#000000;solid-opacity:1;vector-effect:none;fill:#000000;fill-opacity:1;fill-rule:nonzero;stroke:none;stroke-width:1;stroke-linecap:round;stroke-linejoin:round;stroke-miterlimit:4;stroke-dasharray:none;stroke-dashoffset:0;stroke-opacity:1;color-rendering:auto;image-rendering:auto;shape-rendering:auto;text-rendering:auto;enable-background:new"
         d="m 325.68945,237 c -2.29403,0 -3.73713,0.12503 -4.65039,1.03711 C 320.12581,238.94919 320,240.3916 320,242.68359 v 3.63282 c 0,2.29198 0.12581,3.7344 1.03906,4.64648 0.91325,0.91208 2.35637,1.03711 4.65039,1.03711 h 4.6211 c 2.29403,0 3.73713,-0.12503 4.65039,-1.03711 0.91325,-0.91208 1.03906,-2.3545 1.03906,-4.64648 v -3.63282 c 0,-2.29199 -0.12581,-3.7344 -1.03906,-4.64648 C 334.04768,237.12503 332.60458,237 330.31055,237 Z"
         id="path1050"
         inkscape:connector-curvature="0"
         sodipodi:nodetypes="scssssscsscss" />
      <path
         sodipodi:nodetypes="sssssssss"
         inkscape:connector-curvature="0"
         id="path4567"
         d="m 188.96876,43.999995 c 72.64865,0 83.03125,10.356615 83.03125,82.937505 v 58.125 c 0,72.58059 -10.3826,82.9375 -83.03125,82.9375 h -73.9375 C 42.382606,268 32.000006,257.64309 32.000006,185.0625 v -58.125 c 0,-72.58089 10.3826,-82.937505 83.031254,-82.937505 z"
         style="display:inline;opacity:0.1;fill:#000000;fill-opacity:1;stroke:none;stroke-width:2;stroke-linecap:round;stroke-linejoin:round;stroke-miterlimit:4;stroke-dasharray:none;stroke-dashoffset:0;stroke-opacity:1;filter:url(#filter4569);enable-background:new" />
    </g>
    <g
       inkscape:groupmode="layer"
       id="layer2"
       inkscape:label="Shape"
       style="display:inline">
      <path
         style="opacity:1;fill:url(#linearGradient1003);fill-opacity:1;stroke:none;stroke-width:2;stroke-linecap:round;stroke-linejoin:round;stroke-miterlimit:4;stroke-dasharray:none;stroke-dashoffset:0;stroke-opacity:1"
         d="M 188.96875,44 C 261.6174,44 272,54.356615 272,126.9375 v 58.125 C 272,257.64309 261.6174,268 188.96875,268 h -73.9375 C 42.3826,268 32,257.64309 32,185.0625 v -58.125 C 32,54.356615 42.3826,44 115.03125,44 Z"
         id="rect877"
         inkscape:connector-curvature="0"
         sodipodi:nodetypes="sssssssss" />
      <path
         sodipodi:nodetypes="sssssssss"
         inkscape:connector-curvature="0"
         id="path888"
         d="M 351.93164,62.5 C 365.55326,62.5 367.5,64.44187 367.5,78.05078 V 89.94922 C 367.5,103.55808 365.55326,105.5 351.93164,105.5 H 336.06836 C 322.44674,105.5 320.5,103.55808 320.5,89.94922 V 78.05078 C 320.5,64.44187 322.44674,62.5 336.06836,62.5 Z"
         style="opacity:1;fill:#065166;fill-opacity:1;stroke:none;stroke-width:2;stroke-linecap:round;stroke-linejoin:round;stroke-miterlimit:4;stroke-dasharray:none;stroke-dashoffset:0;stroke-opacity:1" />
      <path
         sodipodi:nodetypes="sssssssss"
         inkscape:connector-curvature="0"
         id="path942"
         d="m 341.12109,133.5 c 9.08109,0 10.37891,1.29458 10.37891,10.36719 v 8.26562 c 0,9.07258 -1.29782,10.36719 -10.37891,10.36719 H 330.87891 C 321.79783,162.5 320.5,161.20539 320.5,152.13281 v -8.26562 c 0,-9.07261 1.29783,-10.36719 10.37891,-10.36719 z"
         style="opacity:1;fill:#065166;fill-opacity:1;stroke:none;stroke-width:2;stroke-linecap:round;stroke-linejoin:round;stroke-miterlimit:4;stroke-dasharray:none;stroke-dashoffset:0;stroke-opacity:1" />
      <path
         style="opacity:1;fill:#065166;fill-opacity:1;stroke:none;stroke-width:2;stroke-linecap:round;stroke-linejoin:round;stroke-miterlimit:4;stroke-dasharray:none;stroke-dashoffset:0;stroke-opacity:1;font-variant-east_asian:normal;vector-effect:none"
         d="m 330.31054,236.5 c 4.54055,0 5.18946,0.64729 5.18946,5.18359 v 3.63282 c 0,4.53629 -0.64891,5.18359 -5.18946,5.18359 h -4.62109 c -4.54053,0 -5.18945,-0.6473 -5.18945,-5.18359 v -3.63282 c 0,-4.5363 0.64892,-5.18359 5.18946,-5.18359 z"
         id="path946"
         inkscape:connector-curvature="0"
         sodipodi:nodetypes="sssssssss" />
      <path
         style="opacity:1;fill:#065166;fill-opacity:1;stroke:none;stroke-width:2;stroke-linecap:round;stroke-linejoin:round;stroke-miterlimit:4;stroke-dasharray:none;stroke-dashoffset:0;stroke-opacity:1;font-variant-east_asian:normal;vector-effect:none"
         d="m 335.71582,189.50031 c 6.81081,10e-6 7.78418,0.97093 7.78418,7.77539 v 5.44891 c 0,6.80444 -0.97337,7.77539 -7.78418,7.77539 h -7.43164 c -6.81081,0 -7.78418,-0.97095 -7.78418,-7.77539 v -5.44892 c 0,-6.80446 0.97337,-7.7754 7.78418,-7.77539 z"
         id="path948"
         inkscape:connector-curvature="0"
         sodipodi:nodetypes="sssssssss" />
      <path
         sodipodi:nodetypes="sssssssss"
         inkscape:connector-curvature="0"
         id="path1068"
         d="M 361.9375,-212 C 507.2348,-212 528,-191.28677 528,-46.125 V 70.125 C 528,215.28618 507.2348,236 361.9375,236 H 214.0625 C 68.7652,236 48,215.28618 48,70.125 V -46.125 C 48,-191.28677 68.7652,-212 214.0625,-212 Z"
         style="display:inline;opacity:0.4;fill:none;fill-opacity:1;stroke:url(#linearGradient1108);stroke-width:8;stroke-linecap:round;stroke-linejoin:round;stroke-miterlimit:4;stroke-dasharray:none;stroke-dashoffset:0;stroke-opacity:1;enable-background:new"
         clip-path="url(#clipPath1082-3)"
         transform="matrix(0.5,0,0,0.5,8,150)" />
      <path
         style="fill:#ffffff;stroke-width:0.62992126;fill-opacity:1"
         d="m 120.23453,219.60585 c -17.12455,-6.55501 -31.3643,-12.27864 -31.643903,-12.71919 -0.279603,-0.44054 -0.53263,-1.93485 -0.562287,-3.32067 -0.08501,-3.97231 -0.690727,-4.75187 -5.674608,-7.30329 l -4.684466,-2.39814 7.389575,-0.0312 c 8.397342,-0.0354 7.604069,-0.63986 8.364095,6.373 0.212768,1.96323 0.723741,3.69527 1.135489,3.84896 0.411748,0.1537 13.221075,4.98069 28.465175,10.72666 15.24409,5.74596 28.002,10.53362 28.35091,10.63922 0.34891,0.1056 13.71682,-4.73969 29.70647,-10.76732 l 29.07209,-10.95933 0.43784,-4.94618 0.43783,-4.94618 7.65098,0.0372 7.65097,0.0372 -5.12579,2.58729 -5.12578,2.58729 -0.41533,4.21493 -0.41533,4.21493 -31.66356,12.05826 c -17.41497,6.63204 -31.78761,12.04174 -31.93921,12.02154 -0.1516,-0.0202 -14.28662,-5.3999 -31.41116,-11.95491 z m 8.45836,-5.35715 c -12.12599,-4.62272 -24.37632,-9.28955 -27.22296,-10.37073 -5.012349,-1.90373 -5.187158,-2.03909 -5.538182,-4.28849 -0.199357,-1.27748 -0.485247,-3.10223 -0.635313,-4.05499 l -0.272838,-1.73228 h 56.758533 56.75853 l -0.44499,3.93317 c -0.24474,2.16326 -0.51418,4.00237 -0.59875,4.08694 -0.46255,0.46256 -55.35844,20.94607 -55.99546,20.8938 -0.41873,-0.0343 -10.68259,-3.8447 -22.80857,-8.46742 z m 24.85677,3.83574 c 1.31173,-1.58053 0.53229,-3.17987 -1.54968,-3.17987 -1.92277,0 -2.70085,1.26312 -1.96281,3.1864 0.45033,1.17355 2.53634,1.16967 3.51249,-0.007 z m -51.31346,-18.9279 c 0,-1.57283 -0.2526,-1.88977 -1.50615,-1.88977 -2.016406,0 -3.121558,1.74812 -1.977017,3.1272 0.469279,0.56545 1.444967,0.94354 2.168197,0.84021 0.99937,-0.14279 1.31497,-0.64142 1.31497,-2.07764 z m 102.33709,1.2901 c 1.31172,-1.58053 0.53229,-3.17987 -1.54969,-3.17987 -1.92276,0 -2.70084,1.26312 -1.96281,3.1864 0.45033,1.17355 2.53634,1.16967 3.5125,-0.007 z M 77.669266,191.28252 c 0.255963,-0.41416 25.715934,-0.62992 74.330714,-0.62992 48.61477,0 74.07475,0.21576 74.33071,0.62992 0.25871,0.4186 -24.67777,0.62992 -74.33071,0.62992 -49.65294,0 -74.589422,-0.21132 -74.330714,-0.62992 z m -3.464567,-5.52208 c 0,-0.2655 3.260026,-3.7335 7.244504,-7.70667 l 7.244498,-7.22395 -7.392132,-7.41144 c -5.620983,-5.63567 -7.07292,-7.41145 -6.059849,-7.41145 0.901348,0 5.992006,4.69757 15.738186,14.52292 7.923244,7.98761 14.500384,14.79076 14.615864,15.11811 0.62467,1.77066 -1.97821,0.0607 -6.021924,-3.95597 l -4.581745,-4.55116 -4.581745,4.55116 -4.581738,4.55116 h -5.811963 c -3.196573,0 -5.811956,-0.21722 -5.811956,-0.48271 z m 19.65966,-14.47792 -14.497266,-14.96063 3.193928,-0.19407 3.193921,-0.19407 4.476964,4.44708 4.476957,4.44708 4.376693,-4.41049 4.376694,-4.41049 h 6.30626 6.30626 l -7.53936,7.55906 -7.53937,7.55905 7.53937,7.55906 7.53936,7.55905 h -3.85657 -3.85658 z m 41.232731,14.54068 c -0.23097,-0.23096 -0.41995,-7.03411 -0.41995,-15.11811 v -14.69816 h 4.40945 4.40945 v 15.11811 15.11811 h -3.9895 c -2.19423,0 -4.17848,-0.18897 -4.40945,-0.41995 z m 17.21785,-14.68862 v -15.21007 l 15.00864,0.19869 c 14.82303,0.19624 15.03709,0.21817 17.30745,1.77349 8.4143,5.76427 7.77559,22.11915 -1.05255,26.9516 -1.66662,0.9123 -4.24147,1.11186 -16.61787,1.28796 l -14.64567,0.2084 z m 27.1731,7.81975 c 1.21366,-0.6276 2.37661,-2.03613 3.1792,-3.85051 1.76493,-3.98993 1.15423,-7.87381 -1.68441,-10.71246 l -2.08522,-2.08522 h -9.51181 -9.51181 v 8.8189 8.8189 h 8.85018 c 6.81256,0 9.29078,-0.22784 10.76387,-0.98961 z m 18.18123,-7.82929 v -15.11811 h 15.74803 15.74803 v 3.14961 3.1496 h -11.9685 -11.96851 v 2.49906 2.49905 l 7.08662,0.17811 7.08661,0.17811 v 3.14961 3.14961 l -7.08661,0.17811 -7.08662,0.17811 v 2.49905 2.49906 h 11.96851 11.9685 v 3.46456 3.46457 H 213.4173 197.66927 Z M 72.629896,150.96756 c -0.258759,-0.41868 26.357556,-0.62992 79.370084,-0.62992 53.01252,0 79.62884,0.21124 79.37008,0.62992 -0.53834,0.87104 -158.201827,0.87104 -158.740164,0 z m 3.937008,-4.75704 c 3.192523,-1.49165 4.560775,-2.47132 4.546488,-3.25531 -0.01127,-0.61683 -0.96131,-9.20025 -2.11125,-19.07426 -1.149947,-9.87402 -1.978973,-18.15798 -1.84228,-18.4088 0.136686,-0.25082 17.048768,-5.985859 37.582398,-12.744539 l 37.33388,-12.288498 37.12727,12.358768 c 20.42,6.79732 37.23308,12.449189 37.36238,12.559699 0.17487,0.14946 -2.29751,23.85514 -3.90282,37.421 -0.0708,0.59794 1.6229,1.7975 4.61259,3.26694 l 4.72441,2.32205 -7.91907,0.0401 -7.91907,0.0401 2.06172,-17.79528 c 1.13394,-9.7874 2.07548,-18.80246 2.0923,-20.03347 l 0.0306,-2.23814 -33.85826,-10.859239 c -18.62202,-5.97259 -34.27513,-10.84729 -34.78464,-10.83267 -0.685,0.0196 -67.745453,21.296889 -68.494095,21.732109 -0.07104,0.0413 0.844498,8.70988 2.034513,19.26351 1.190016,10.55364 2.169399,19.54276 2.176397,19.97583 0.0096,0.59054 -1.916611,0.77446 -7.703805,0.73563 l -7.716535,-0.0518 4.566929,-2.13381 z m 13.402167,1.76492 c 0.009,-0.25985 -0.892258,-8.76018 -2.002759,-18.88964 -1.110501,-10.12945 -1.891609,-18.54467 -1.735798,-18.70049 0.155817,-0.15581 14.988606,-5.01737 32.961756,-10.803479 l 32.67846,-10.52018 32.82053,10.55261 c 18.05129,5.803939 32.9102,10.633459 33.01979,10.732269 0.22131,0.19954 -3.52082,34.4379 -4.00943,36.68402 l -0.30832,1.41733 h -61.72029 c -33.94615,0 -61.712928,-0.2126 -61.703939,-0.47244 z m 11.393219,-14.17323 0.071,-8.34646 1.99966,8.18898 1.99965,8.18897 h 3.69311 3.69312 l 1.78676,-7.81297 c 0.98271,-4.29714 1.93234,-7.95855 2.11027,-8.13648 0.17792,-0.17793 0.3235,3.40877 0.3235,7.97045 v 8.29396 h 2.83465 2.83465 V 128.2904 114.43213 h -4.01942 -4.01942 l -2.80006,11.1811 -2.80006,11.1811 -2.34166,-9.76378 c -3.21379,-13.40018 -2.74839,-12.59842 -7.312965,-12.59842 h -3.793033 v 13.85827 13.85826 h 2.834646 2.834642 z m 31.42509,3.38279 v -4.96365 l 3.87316,-0.28016 c 3.3865,-0.24496 4.09886,-0.53275 5.66929,-2.29038 1.67023,-1.86931 1.79613,-2.37797 1.79613,-7.25697 0,-7.37194 -0.35886,-7.64675 -9.98556,-7.64675 h -7.33727 l -0.16977,13.70079 -0.16976,13.70078 h 3.16189 3.16189 z m 0,-13.58279 v -3.50079 h 2.86756 2.86757 l -0.1904,3.30709 -0.1904,3.30708 -2.67717,0.1937 -2.67716,0.1937 z m 28.97638,16.02677 v -2.51969 h -4.07996 -4.07995 l -0.17202,-11.1811 -0.17201,-11.1811 h -2.83465 -2.83464 l -0.16977,13.70079 -0.16976,13.70078 h 7.25638 7.25638 z m 9.03286,1.41732 c 0.16437,-0.6063 0.47234,-1.88189 0.68437,-2.83464 0.3392,-1.52421 0.67774,-1.73229 2.81841,-1.73229 2.35775,0 2.45495,0.0876 3.14667,2.83465 0.71316,2.8322 0.71621,2.83464 3.53935,2.83464 1.84426,0 2.82314,-0.27346 2.81856,-0.7874 -0.004,-0.43307 -1.23183,-6.59842 -2.72881,-13.70078 l -2.72179,-12.91339 h -3.98491 -3.98492 l -2.70547,12.59842 c -1.48801,6.92914 -2.7188,13.09449 -2.73509,13.70079 -0.0239,0.88853 0.512,1.10236 2.76257,1.10236 2.12543,0 2.86356,-0.26323 3.09106,-1.10236 z m 2.64811,-13.85827 c 0.43068,-4.13692 0.66563,-5.05532 1.15484,-4.51443 0.13057,0.14436 0.43659,2.17585 0.68007,4.51443 0.42405,4.0732 0.38547,4.25197 -0.91746,4.25197 -1.30293,0 -1.34151,-0.17877 -0.91745,-4.25197 z m 24.81358,14.55936 c 1.1035,-0.2207 2.83972,-1.23463 3.85827,-2.25318 1.58234,-1.58233 1.8519,-2.3368 1.8519,-5.18307 0,-2.31794 -0.36374,-3.79358 -1.19587,-4.85147 -1.04532,-1.32891 -1.08498,-1.67198 -0.31496,-2.72503 0.54564,-0.74621 0.88091,-2.79997 0.88091,-5.39614 0,-6.12799 -0.6799,-6.59141 -9.67057,-6.59141 h -7.02235 l -0.16976,13.70079 -0.16976,13.70078 h 4.97291 c 2.7351,0 5.87578,-0.18057 6.97928,-0.40127 z m -5.62841,-7.7877 c 0,-3.14325 0.004,-3.14961 2.07874,-3.14961 2.50367,0 3.59055,0.9534 3.59055,3.14961 0,2.1962 -1.08688,3.1496 -3.59055,3.1496 -2.07454,0 -2.07874,-0.006 -2.07874,-3.1496 z m 0,-10.98371 c 0,-2.87411 3.4e-4,-2.87456 2.24095,-2.87456 h 2.24094 l -0.1937,2.67717 c -0.18181,2.51284 -0.31937,2.68928 -2.24094,2.87455 -2.03947,0.19664 -2.04725,0.18647 -2.04725,-2.67716 z m 16.25197,-4.26039 c 2.03674,-2.03674 -1.10418,-5.50793 -3.31993,-3.66902 -1.78961,1.48525 -0.7558,4.42493 1.55615,4.42493 0.55433,0 1.34803,-0.34016 1.76378,-0.75591 z m -3.41777,-0.79811 c -0.19504,-0.50826 -0.20852,-1.28779 -0.03,-1.73229 0.17855,-0.4445 0.34703,-0.21763 0.37438,0.50416 0.0273,0.72178 0.46272,1.31233 0.96751,1.31233 1.3775,0 1.70179,-1.55773 0.47338,-2.27389 -0.59191,-0.34509 -0.75658,-0.63605 -0.36593,-0.64658 0.39067,-0.0105 1.06317,0.40604 1.49447,0.92572 0.62563,0.75384 0.62563,1.13593 0,1.88977 -0.99954,1.20438 -2.45566,1.21476 -2.91383,0.0208 z M 154.00976,96.393751 c 0.57275,-1.49257 -0.65031,-3.06398 -2.38477,-3.06398 -1.54231,0 -2.2588,1.43785 -1.58782,3.1864 0.47886,1.24789 3.48227,1.15534 3.97259,-0.12242 z"
         id="path389"
         inkscape:connector-curvature="0" />
      <path
         style="display:inline;fill:#ffffff;fill-opacity:1;stroke-width:0.1259843;enable-background:new"
         d="m 337.64696,97.721494 c -3.42491,-1.311 -6.27286,-2.45573 -6.32878,-2.54384 -0.0559,-0.0881 -0.10652,-0.38697 -0.11246,-0.66413 -0.017,-0.79447 -0.13814,-0.95038 -1.13492,-1.46066 l -0.93689,-0.47963 1.47791,-0.006 c 1.67947,-0.007 1.52082,-0.12797 1.67282,1.2746 0.0426,0.39265 0.14475,0.73905 0.2271,0.76979 0.0823,0.0307 2.64422,0.99614 5.69304,2.14533 3.04882,1.1492 5.6004,2.10673 5.67018,2.12785 0.0698,0.0211 2.74337,-0.94794 5.9413,-2.15347 l 5.81442,-2.19186 0.0876,-0.98924 0.0876,-0.98924 1.5302,0.007 1.53019,0.007 -1.02516,0.51746 -1.02515,0.51746 -0.0831,0.84299 -0.0831,0.84298 -6.33271,2.41166 c -3.48299,1.3264 -6.35752,2.408346 -6.38784,2.404306 -0.0303,-0.004 -2.85733,-1.079986 -6.28224,-2.390986 z m 1.69168,-1.07143 c -2.4252,-0.92455 -4.87527,-1.85791 -5.4446,-2.07415 -1.00247,-0.38074 -1.03743,-0.40782 -1.10763,-0.8577 -0.0399,-0.25549 -0.097,-0.62044 -0.12707,-0.811 l -0.0546,-0.34645 h 11.3517 11.35171 l -0.089,0.78663 c -0.0489,0.43266 -0.10284,0.80048 -0.11975,0.81739 -0.0925,0.0925 -11.07169,4.18922 -11.1991,4.17876 -0.0838,-0.007 -2.13652,-0.76894 -4.56171,-1.69348 z m -10.89765,-5.69766 c 0,-0.0531 0.65201,-0.7467 1.4489,-1.54133 l 1.44891,-1.44479 -1.47843,-1.48229 c -1.1242,-1.12713 -1.41459,-1.48229 -1.21197,-1.48229 0.18027,0 1.1984,0.93951 3.14764,2.90458 1.58465,1.59753 2.90007,2.95816 2.92317,3.02363 0.12493,0.35413 -0.39564,0.0121 -1.20438,-0.7912 l -0.91635,-0.91023 -0.91635,0.91023 -0.91635,0.91024 h -1.16239 c -0.63932,0 -1.1624,-0.0435 -1.1624,-0.0966 z m 3.93194,-2.89558 -2.89946,-2.99213 0.63879,-0.0388 0.63878,-0.0388 0.8954,0.88942 0.89539,0.88942 0.87534,-0.8821 0.87534,-0.8821 h 1.26125 1.26125 l -1.50787,1.51181 -1.50788,1.51181 1.50788,1.51181 1.50787,1.51182 h -0.77131 -0.77132 z m 8.24655,2.90814 c -0.0462,-0.0462 -0.084,-1.40683 -0.084,-3.02363 v -2.93963 h 0.88189 0.88189 v 3.02362 3.02363 h -0.7979 c -0.43885,0 -0.8357,-0.0378 -0.88189,-0.084 z m 3.44357,-2.93773 v -3.04201 l 3.00173,0.0397 c 2.9646,0.0392 3.00741,0.0436 3.46149,0.3547 1.68286,1.15286 1.55512,4.42383 -0.21051,5.39032 -0.33333,0.18246 -0.8483,0.22238 -3.32358,0.2576 l -2.92913,0.0417 z m 5.43462,1.56395 c 0.24273,-0.12552 0.47532,-0.40723 0.63584,-0.7701 0.35299,-0.79799 0.23084,-1.57476 -0.33688,-2.14249 l -0.41705,-0.41705 h -1.90236 -1.90236 v 1.76378 1.76378 h 1.77003 c 1.36252,0 1.85816,-0.0456 2.15278,-0.19792 z m 3.63625,-1.56586 v -3.02362 h 3.1496 3.14961 v 0.62992 0.62992 h -2.3937 -2.3937 v 0.49981 0.49981 l 1.41732,0.0356 1.41732,0.0356 v 0.62992 0.62992 l -1.41732,0.0356 -1.41732,0.0356 v 0.49981 0.49981 h 2.3937 2.3937 v 0.69291 0.69292 h -3.14961 -3.1496 z m -24.22048,-4.9829 c 0.6385,-0.29833 0.91215,-0.49427 0.90929,-0.65107 -0.002,-0.12336 -0.19226,-1.84005 -0.42225,-3.81485 -0.22999,-1.9748 -0.39579,-3.6316 -0.36845,-3.68176 0.0273,-0.0502 3.40975,-1.19717 7.51648,-2.54891 l 7.46678,-2.4577 7.42545,2.47176 c 4.08401,1.35946 7.44662,2.48983 7.47248,2.51194 0.035,0.0299 -0.4595,4.77103 -0.78056,7.4842 -0.0142,0.11959 0.32458,0.3595 0.92252,0.65339 l 0.94488,0.46441 -1.58381,0.008 -1.58382,0.008 0.41235,-3.55906 c 0.22678,-1.95748 0.41509,-3.76049 0.41846,-4.0067 l 0.006,-0.44762 -6.77166,-2.17185 c -3.72441,-1.19452 -6.85503,-2.16946 -6.95693,-2.16654 -0.137,0.004 -13.5491,4.25938 -13.69882,4.34643 -0.0142,0.008 0.16889,1.74197 0.4069,3.8527 0.238,2.11073 0.43388,3.90855 0.43528,3.99517 0.002,0.1181 -0.38332,0.15489 -1.54076,0.14712 l -1.54331,-0.0104 0.91339,-0.42676 z m 2.68043,0.35298 c 0.002,-0.052 -0.17845,-1.75204 -0.40055,-3.77793 -0.2221,-2.02589 -0.37833,-3.70893 -0.34716,-3.7401 0.0312,-0.0312 2.99772,-1.00347 6.59235,-2.16069 l 6.53569,-2.10404 6.56411,2.11052 c 3.61026,1.16079 6.58205,2.12669 6.60396,2.14646 0.0443,0.0399 -0.70416,6.88758 -0.80188,7.3368 l -0.0617,0.28347 h -12.34406 c -6.78923,0 -12.34259,-0.0425 -12.34079,-0.0945 z m 2.27864,-2.83465 0.0142,-1.66929 0.39994,1.6378 0.39993,1.63779 h 0.73862 0.73862 l 0.35735,-1.56259 c 0.19655,-0.85943 0.38647,-1.59171 0.42206,-1.6273 0.0356,-0.0356 0.0647,0.68176 0.0647,1.59409 v 1.65879 h 0.56693 0.56693 v -2.77165 -2.77165 h -0.80389 -0.80388 l -0.56001,2.23622 -0.56001,2.23622 -0.46834,-1.95276 c -0.64275,-2.68004 -0.54967,-2.51968 -1.46259,-2.51968 h -0.75861 v 2.77165 2.77165 h 0.56693 0.56693 z m 6.28502,0.67656 v -0.99273 l 0.77464,-0.056 c 0.6773,-0.049 0.81977,-0.10655 1.13385,-0.45808 0.33405,-0.37386 0.35923,-0.47559 0.35923,-1.45139 0,-1.47439 -0.0718,-1.52935 -1.99711,-1.52935 h -1.46746 l -0.034,2.74016 -0.034,2.74015 h 0.63238 0.63237 z m 0,-2.71656 v -0.70016 h 0.57352 0.57351 l -0.0381,0.66142 -0.0381,0.66142 -0.53543,0.0387 -0.53544,0.0387 z m 5.79528,3.20536 v -0.50394 h -0.81599 -0.81599 l -0.0344,-2.23622 -0.0344,-2.23622 h -0.56693 -0.56693 l -0.034,2.74016 -0.0339,2.74015 h 1.45128 1.45127 z m 1.80657,0.28346 c 0.0329,-0.12126 0.0945,-0.37638 0.13688,-0.56693 0.0678,-0.30484 0.13555,-0.34645 0.56368,-0.34645 0.47155,0 0.49099,0.0175 0.62933,0.56693 0.14264,0.56644 0.14325,0.56692 0.70788,0.56692 0.36885,0 0.56462,-0.0547 0.56371,-0.15748 -8e-4,-0.0866 -0.24637,-1.31968 -0.54577,-2.74015 l -0.54435,-2.58268 h -0.79699 -0.79698 l -0.54109,2.51968 c -0.29761,1.38583 -0.54376,2.6189 -0.54702,2.74016 -0.005,0.17771 0.1024,0.22047 0.55251,0.22047 0.42509,0 0.57271,-0.0526 0.61821,-0.22047 z m 0.52963,-2.77165 c 0.0861,-0.82739 0.13312,-1.01107 0.23097,-0.90289 0.0261,0.0289 0.0873,0.43517 0.13601,0.90289 0.0848,0.81464 0.0771,0.85039 -0.18349,0.85039 -0.26059,0 -0.2683,-0.0358 -0.18349,-0.85039 z m 4.96272,2.91187 c 0.22069,-0.0441 0.56794,-0.24693 0.77165,-0.45064 0.31647,-0.31646 0.37038,-0.46736 0.37038,-1.03661 0,-0.46359 -0.0727,-0.75872 -0.23918,-0.97029 -0.20906,-0.26579 -0.21699,-0.3344 -0.063,-0.54501 0.10913,-0.14924 0.17618,-0.55999 0.17618,-1.07923 0,-1.2256 -0.13598,-1.31828 -1.93411,-1.31828 h -1.40447 l -0.034,2.74016 -0.034,2.74015 h 0.99458 c 0.54702,0 1.17516,-0.0361 1.39586,-0.0803 z m -1.12569,-1.55754 c 0,-0.62865 8e-4,-0.62992 0.41575,-0.62992 0.50074,0 0.71811,0.19068 0.71811,0.62992 0,0.43924 -0.21737,0.62992 -0.71811,0.62992 -0.41491,0 -0.41575,-10e-4 -0.41575,-0.62992 z m 0,-2.19674 c 0,-0.57483 7e-5,-0.57492 0.44819,-0.57492 h 0.44819 l -0.0387,0.53544 c -0.0364,0.50257 -0.0639,0.53786 -0.44819,0.57491 -0.40789,0.0393 -0.40945,0.0373 -0.40945,-0.53543 z"
         id="path389-5"
         inkscape:connector-curvature="0"
         sodipodi:nodetypes="ccccccccccccccccccccccccccccccccscccccccsccccccsccccccccccccccccccccscccccsccccccccccccccccccsccccccccccccccccccccccccccccscccccccccccccscccccccccssscccccscccccccccssccccccccccsccccccccccssccccccccccccccccccccccccccccccscscccccccsccccscccsccsscccsccssssscsccccc" />
      <path
         style="display:inline;fill:#ffffff;fill-opacity:1;stroke-width:0.07873989;enable-background:new"
         d="m 343.37852,152.72586 0.95637,0.004 0.95636,0.004 -1.38524,1.70055 -3.95793,1.50728 c -2.17686,0.829 -3.97343,1.50521 -3.99238,1.50268 -0.0189,-0.002 -1.78583,-0.67498 -3.92639,-1.49435 l -7e-5,0.001 c -2.14056,-0.81937 -3.92052,-1.53482 -3.95547,-1.58989 l -1.36517,-1.62776 0.92369,-0.004 1.24562,-0.004 h 7.09479 7.09479 z m -13.17911,-0.93118 c -0.2644,-0.13223 -0.24728,-0.0804 -0.75274,-0.58289 l -0.57271,-0.56889 -0.57272,0.56889 -0.57272,0.5689 h -0.72649 c -0.39957,0 -0.72649,-0.0272 -0.72649,-0.0604 v 6e-5 c 0,-0.0332 0.4075,-0.46669 0.90555,-0.96333 l 0.90557,-0.90299 -0.92402,-0.92643 c -0.70262,-0.70445 -0.88411,-0.92643 -0.75747,-0.92643 l 0.51566,0.0394 0.39925,-0.0243 0.39923,-0.0242 0.55962,0.55589 0.55961,0.55588 0.5471,-0.55131 0.54708,-0.55131 h 0.78828 0.78827 l -0.94242,0.94488 -0.94242,0.94488 0.94242,0.94487 0.94242,0.94489 h -0.48207 -0.48207 z m 3.68765,-0.0665 c -0.0289,-0.0289 -0.0525,-0.87927 -0.0525,-1.88977 v -1.83726 h 0.55117 0.55118 v 1.88976 1.88976 h -0.49867 c -0.27428,0 -0.52231,-0.0236 -0.55118,-0.0525 z m 2.15222,-1.83608 v -1.90125 l 1.87608,0.0248 c 1.85287,0.0245 1.87962,0.0273 2.16341,0.22169 1.05179,0.72054 0.97195,2.76488 -0.13155,3.36894 -0.20835,0.11404 -0.53019,0.13899 -2.07723,0.161 l -1.8307,0.0261 z m 3.39662,0.97747 c 0.15171,-0.0785 0.29707,-0.25452 0.3974,-0.48131 0.22062,-0.49875 0.14427,-0.98423 -0.21055,-1.33906 l -0.26066,-0.26065 h -1.18896 -1.18897 v 1.10236 1.10236 h 1.10627 c 0.85157,0 1.16134,-0.0285 1.34547,-0.1237 z m 2.27265,-0.97866 v -1.88976 h 1.96849 1.9685 v 0.3937 0.3937 h -1.49606 -1.49605 v 0.31238 0.31238 l 0.88582,0.0223 0.88582,0.0222 v 0.3937 0.3937 l -0.88582,0.0222 -0.88582,0.0223 v 0.31238 0.31238 h 1.49605 1.49606 v 0.43306 0.43308 h -1.9685 -1.96849 z m 1.96543,-2.83464 h -7.71502 c -4.24324,0 -7.71409,-0.0266 -7.71296,-0.0591 l 7e-5,5e-5 -0.97466,0.0158 -0.1323,-0.64333 c -9.9e-4,-0.0771 -0.12016,-1.15003 -0.26391,-2.38427 -0.14373,-1.23425 -0.24736,-2.26974 -0.23028,-2.30109 0.0171,-0.0314 2.13109,-0.74823 4.69779,-1.59307 l 4.66672,-1.53605 4.64089,1.54484 c 2.55249,0.84966 4.65412,1.55614 4.67028,1.56996 0.0219,0.0187 -0.28719,2.98188 -0.48784,4.6776 l -0.0172,0.70863 z m -14.00377,-1.8307 0.009,-1.0433 0.24996,1.02362 0.24995,1.02361 h 0.46164 0.46164 l 0.22334,-0.97661 c 0.12284,-0.53714 0.24154,-0.99482 0.26379,-1.01706 0.0223,-0.0222 0.0404,0.4261 0.0404,0.9963 v 1.03674 h 0.35433 0.35433 v -1.73227 -1.73228 h -0.50243 -0.50242 l -0.35,1.39763 -0.35001,1.39764 -0.29271,-1.22047 c -0.40172,-1.67502 -0.34354,-1.5748 -0.91412,-1.5748 h -0.47413 v 1.73228 1.73227 h 0.35433 0.35433 z m 3.92813,0.42285 v -0.62046 l 0.48415,-0.035 c 0.42331,-0.0306 0.51236,-0.0666 0.70866,-0.2863 0.20878,-0.23366 0.22451,-0.29724 0.22451,-0.90711 0,-0.92149 -0.0449,-0.95584 -1.24818,-0.95584 h -0.91716 l -0.0212,1.71259 -0.0213,1.71259 h 0.39524 0.39523 z m 0,-1.69785 V 143.513 h 0.35844 0.35845 l -0.0238,0.41338 -0.0238,0.41339 -0.33464,0.0242 -0.33465,0.0242 z m 3.62203,2.00335 v -0.31497 h -0.50999 -0.50999 l -0.0215,-1.39763 -0.0215,-1.39763 h -0.35433 -0.35433 l -0.0213,1.71259 -0.0212,1.71259 h 0.90705 0.90704 z m 1.1291,0.17716 c 0.0206,-0.0758 0.0591,-0.23524 0.0856,-0.35433 0.0424,-0.19053 0.0847,-0.21653 0.3523,-0.21653 0.29472,0 0.30687,0.0109 0.39333,0.35433 0.0892,0.35402 0.0895,0.35432 0.44243,0.35432 0.23053,0 0.35289,-0.0342 0.35231,-0.0984 -5e-4,-0.0541 -0.15398,-0.8248 -0.3411,-1.71259 l -0.34022,-1.61417 h -0.49811 -0.49811 l -0.33818,1.57479 c -0.186,0.86614 -0.33986,1.63681 -0.34188,1.7126 -0.003,0.11107 0.064,0.13779 0.3453,0.13779 0.26568,0 0.35796,-0.0329 0.38638,-0.13779 z m 0.33102,-1.73228 c 0.0538,-0.51711 0.0832,-0.63191 0.14437,-0.5643 0.0163,0.0181 0.0546,0.27198 0.085,0.5643 0.053,0.50915 0.0482,0.53149 -0.11468,0.53149 -0.16287,0 -0.16768,-0.0224 -0.11468,-0.53149 z m 3.1017,1.81992 c 0.13792,-0.0276 0.35496,-0.15434 0.48228,-0.28165 0.19779,-0.19779 0.23149,-0.2921 0.23149,-0.64788 0,-0.28975 -0.0454,-0.4742 -0.14949,-0.60643 -0.13066,-0.16612 -0.13563,-0.209 -0.0394,-0.34063 0.0682,-0.0933 0.11012,-0.34999 0.11012,-0.67452 0,-0.76599 -0.085,-0.82392 -1.20882,-0.82392 h -0.8778 l -0.0213,1.71259 -0.0213,1.71259 h 0.6216 c 0.34189,0 0.73447,-0.0226 0.87241,-0.0502 z m -0.70355,-0.97346 c 0,-0.39291 4.9e-4,-0.3937 0.25984,-0.3937 0.31295,0 0.44882,0.11917 0.44882,0.3937 0,0.27452 -0.13586,0.39369 -0.44882,0.39369 -0.25932,0 -0.25984,-6.2e-4 -0.25984,-0.39369 z m 0,-1.37296 c 0,-0.35927 4e-5,-0.35932 0.2801,-0.35932 h 0.28012 l -0.0242,0.33464 c -0.0227,0.31411 -0.0399,0.33617 -0.2801,0.35932 -0.25493,0.0246 -0.25591,0.0233 -0.25591,-0.33464 z"
         id="path389-5-3"
         inkscape:connector-curvature="0"
         sodipodi:nodetypes="ccccccccccccccccccccscccccccccccccccccccccccscccccsccccccccccccccccccscccccccccccccccccccccccccccsccccscccccccccccccccssccccccccccsccccccccccssccccccccccccccccccccccccccccccscscccccccsccccscccsccsscccsccssssscsccccccc" />
      <path
         style="display:inline;fill:#ffffff;fill-opacity:1;stroke-width:0.05691061;enable-background:new"
         d="m 338.74393,203.42176 -1.00121,1.2291 -5.74622,2.1755 -5.6968,-2.22846 -0.9867,-1.17649 z m -10.90789,-0.67903 c -0.1911,-0.0956 -0.17872,-0.0581 -0.54405,-0.42129 l -0.41394,-0.41118 -0.41394,0.41118 -0.41394,0.41118 h -0.52509 c -0.28879,0 -0.52508,-0.0197 -0.52508,-0.0437 v 5e-5 c 0,-0.024 0.29453,-0.33731 0.6545,-0.69627 l 0.65452,-0.65265 -0.66785,-0.66959 c -0.50783,-0.50915 -0.63901,-0.66959 -0.54748,-0.66959 l 0.3727,0.0285 0.28857,-0.0176 0.28855,-0.0175 0.40447,0.40178 0.40447,0.40177 0.39543,-0.39847 0.39541,-0.39847 h 0.56974 0.56974 l -0.68115,0.68293 -0.68115,0.68293 0.68115,0.68292 0.68115,0.68294 h -0.34843 -0.34842 z m 2.66532,-0.0481 c -0.0209,-0.0209 -0.0379,-0.63551 -0.0379,-1.36587 v -1.32791 h 0.39837 0.39837 v 1.36586 1.36586 h -0.36042 c -0.19824,0 -0.37751,-0.0171 -0.39837,-0.0379 z m 1.55555,-1.32706 v -1.37416 l 1.35597,0.0179 c 1.33919,0.0177 1.35853,0.0197 1.56364,0.16023 0.7602,0.52079 0.70249,1.99837 -0.0951,2.43496 -0.15059,0.0824 -0.3832,0.10046 -1.50135,0.11637 l -1.32317,0.0189 z m 2.45497,0.70648 c 0.10965,-0.0567 0.21471,-0.18396 0.28722,-0.34787 0.15946,-0.36048 0.10428,-0.71137 -0.15217,-0.96783 l -0.1884,-0.18839 h -0.85934 -0.85935 v 0.79675 0.79675 h 0.79957 c 0.61549,0 0.83938,-0.0206 0.97247,-0.0894 z m 1.64259,-0.70734 v -1.36586 H 337.57723 339 v 0.28456 0.28455 h -1.0813 -1.0813 v 0.22578 0.22578 l 0.64024,0.0161 0.64024,0.016 v 0.28455 0.28456 l -0.64024,0.016 -0.64024,0.0161 v 0.22578 0.22577 H 337.9187 339 v 0.31301 0.31301 h -1.42277 -1.42276 z M 325.267,199.28665 v -3.8514 l 6.76836,-2.26162 6.72964,2.25127 v 3.89299 z m 1.74968,-1.27344 0.008,-0.82934 0.19869,0.8137 0.1987,0.81369 h 0.36697 0.36697 l 0.17754,-0.77633 c 0.0976,-0.42699 0.19201,-0.7908 0.20969,-0.80848 0.0177,-0.0176 0.0321,0.33871 0.0321,0.79199 v 0.82413 h 0.28167 0.28165 v -1.37703 -1.37704 h -0.39939 -0.39938 l -0.27823,1.11102 -0.27823,1.11101 -0.23268,-0.97017 c -0.31934,-1.33152 -0.27309,-1.25186 -0.72666,-1.25186 h -0.3769 v 1.37704 1.37703 h 0.28167 0.28167 z m 3.12257,0.33615 v -0.49323 l 0.38486,-0.0278 c 0.3365,-0.0243 0.40728,-0.0529 0.56333,-0.22759 0.16596,-0.18574 0.17847,-0.23628 0.17847,-0.72109 0,-0.73251 -0.0356,-0.75982 -0.99221,-0.75982 h -0.72907 l -0.0168,1.36139 -0.0169,1.36138 h 0.31417 0.31418 z m 0,-1.34967 v -0.34783 h 0.28493 0.28493 l -0.0189,0.3286 -0.0189,0.32862 -0.26602,0.0192 -0.26601,0.0192 z m 2.87923,1.59251 v -0.25038 h -0.4054 -0.4054 l -0.017,-1.11101 -0.017,-1.11101 h -0.28167 -0.28167 l -0.0169,1.36138 -0.0168,1.36139 h 0.72104 0.72103 z m 0.89756,0.14083 c 0.0164,-0.0603 0.047,-0.187 0.0681,-0.28166 0.0336,-0.15146 0.0673,-0.17213 0.28005,-0.17213 0.23427,0 0.24394,0.009 0.31267,0.28167 0.0709,0.28141 0.0712,0.28166 0.3517,0.28166 0.18325,0 0.28052,-0.0272 0.28006,-0.0782 -4e-4,-0.043 -0.1224,-0.65566 -0.27116,-1.36139 l -0.27045,-1.28315 h -0.39596 -0.39595 l -0.26883,1.25185 c -0.14785,0.68852 -0.27017,1.30114 -0.27177,1.36139 -0.002,0.0883 0.0509,0.10954 0.27448,0.10954 0.2112,0 0.28456,-0.0262 0.30715,-0.10954 z m 0.26313,-1.37704 c 0.0212,-0.13672 0.0349,-0.432 0.11477,-0.44857 0.019,-0.004 0.0434,0.2162 0.0675,0.44857 0.0421,0.40474 0.0383,0.42251 -0.0912,0.42251 -0.12946,0 -0.13328,-0.0178 -0.0912,-0.42251 z m 2.46563,1.44671 c 0.10727,0.0316 0.28216,-0.12269 0.38337,-0.2239 0.15723,-0.15722 0.18402,-0.23219 0.18402,-0.51501 0,-0.23032 -0.0361,-0.37695 -0.11884,-0.48206 -0.10382,-0.13206 -0.10778,-0.16615 -0.0313,-0.27078 0.0542,-0.0741 0.0876,-0.27822 0.0876,-0.5362 0,-0.6089 -0.0675,-0.65495 -0.96092,-0.65495 h -0.69779 l -0.0169,1.36138 -0.0169,1.36139 h 0.49414 c 0.27177,0 0.58621,-0.0715 0.6935,-0.0399 z m -0.55928,-0.77383 c 0,-0.31234 3.9e-4,-0.31296 0.20656,-0.31296 0.24877,0 0.35677,0.0947 0.35677,0.31296 0,0.21822 -0.108,0.31295 -0.35677,0.31295 -0.20614,0 -0.20656,-4.9e-4 -0.20656,-0.31295 z m 0,-1.0914 c 0,-0.28559 3e-5,-0.28563 0.22266,-0.28563 h 0.22267 l -0.0192,0.26601 c -0.018,0.2497 -0.0317,0.26723 -0.22265,0.28563 -0.20266,0.0196 -0.20344,0.0185 -0.20344,-0.26601 z"
         id="path389-5-3-5"
         inkscape:connector-curvature="0"
         sodipodi:nodetypes="cccccccccccscccccccccccccccccccccccscccccsccccccccccccccccccscccccccccccccccccccccccccccccccccccccccssccccccccccsccccccccccssccccccccccccccccccccccccccccccscscccccccscccccccccscsscccsccssscscscccccccc" />
      <path
         style="display:inline;fill:#ffffff;fill-opacity:1;stroke-width:0.04065044;enable-background:new"
         d="m 332.81709,245.94414 -0.71515,0.87793 -4.10444,1.55393 -4.06914,-1.59176 -0.70479,-0.84035 z m -7.79135,-0.48502 c -0.1365,-0.0683 -0.12765,-0.0415 -0.3886,-0.30092 l -0.29568,-0.2937 -0.29567,0.2937 -0.29567,0.2937 h -0.37506 c -0.20628,0 -0.37506,-0.0141 -0.37506,-0.0312 v 3e-5 c 0,-0.0171 0.21038,-0.24093 0.4675,-0.49733 l 0.46751,-0.46618 -0.47703,-0.47828 c -0.36274,-0.36368 -0.45644,-0.47828 -0.39106,-0.47828 l 0.26622,0.0204 0.20612,-0.0126 0.2061,-0.0125 0.28891,0.28698 0.28891,0.28698 0.28245,-0.28462 0.28243,-0.28462 h 0.40696 0.40696 l -0.48654,0.4878 -0.48653,0.48781 0.48653,0.4878 0.48654,0.48782 h -0.24888 -0.24887 z m 1.9038,-0.0344 c -0.0149,-0.0149 -0.0271,-0.45393 -0.0271,-0.97562 v -0.9485 h 0.28455 0.28455 v 0.97561 0.97561 h -0.25744 c -0.1416,0 -0.26965,-0.0122 -0.28455,-0.0271 z m 1.11111,-0.9479 v -0.98154 l 0.96855,0.0128 c 0.95656,0.0126 0.97038,0.0141 1.11689,0.11445 0.543,0.37199 0.50177,1.4274 -0.0679,1.73925 -0.10757,0.0589 -0.27372,0.0718 -1.0724,0.0831 l -0.94512,0.0135 z m 1.75355,0.50463 c 0.0783,-0.0405 0.15336,-0.1314 0.20516,-0.24848 0.1139,-0.25748 0.0745,-0.50812 -0.1087,-0.6913 l -0.13457,-0.13457 h -0.61381 -0.61382 v 0.56911 0.56911 h 0.57112 c 0.43963,0 0.59956,-0.0147 0.69462,-0.0639 z m 1.17328,-0.50524 V 243.5006 H 331.98374 333 v 0.20325 0.20325 h -0.77236 -0.77235 v 0.16127 0.16128 l 0.45731,0.0115 0.45731,0.0114 v 0.20325 0.20326 l -0.45731,0.0114 -0.45731,0.0115 v 0.16127 0.16127 H 332.22764 333 v 0.22357 0.22358 h -1.01626 -1.01626 z m -7.77677,-1.48576 v -2.751 l 4.83455,-1.61544 4.80688,1.60805 v 2.78071 z m 1.24978,-0.9096 0.006,-0.59238 0.14192,0.58121 0.14193,0.58121 h 0.26212 0.26212 l 0.12682,-0.55452 c 0.0697,-0.305 0.13715,-0.56486 0.14978,-0.57749 0.0126,-0.0126 0.0229,0.24194 0.0229,0.56571 v 0.58866 h 0.2012 0.20118 v -0.98359 -0.9836 h -0.28528 -0.28527 l -0.19874,0.79359 -0.19874,0.79357 -0.1662,-0.69297 c -0.2281,-0.95109 -0.19506,-0.89419 -0.51904,-0.89419 h -0.26921 v 0.9836 0.98358 h 0.20119 0.20119 z m 2.2304,0.24011 v -0.35231 l 0.2749,-0.0199 c 0.24036,-0.0174 0.29092,-0.0378 0.40238,-0.16257 0.11854,-0.13267 0.12748,-0.16877 0.12748,-0.51506 0,-0.52322 -0.0254,-0.54273 -0.70872,-0.54273 h -0.52077 l -0.012,0.97242 -0.0121,0.97241 h 0.22441 0.22441 z m 0,-0.96405 v -0.24845 h 0.20352 0.20353 l -0.0135,0.23471 -0.0135,0.23473 -0.19002,0.0137 -0.19001,0.0137 z m 2.0566,1.13751 v -0.17885 h -0.28958 -0.28957 l -0.0121,-0.79357 -0.0121,-0.79358 h -0.2012 -0.20119 l -0.0121,0.97241 -0.012,0.97242 h 0.51503 0.51502 z m 0.64111,0.10059 c 0.0117,-0.0431 0.0336,-0.13357 0.0486,-0.20119 0.024,-0.10818 0.0481,-0.12295 0.20004,-0.12295 0.16733,0 0.17424,0.006 0.22333,0.2012 0.0506,0.201 0.0509,0.20118 0.25122,0.20118 0.13089,0 0.20037,-0.0194 0.20004,-0.0559 -2.8e-4,-0.0307 -0.0874,-0.46833 -0.19368,-0.97243 l -0.19318,-0.91653 h -0.28283 -0.28282 l -0.19202,0.89418 c -0.10561,0.4918 -0.19298,0.92938 -0.19413,0.97242 -10e-4,0.0631 0.0364,0.0782 0.19606,0.0782 0.15086,0 0.20326,-0.0187 0.21939,-0.0782 z m 0.18795,-0.9836 c 0.0151,-0.0977 0.0249,-0.30857 0.082,-0.32041 0.0136,-0.003 0.031,0.15443 0.0482,0.32041 0.0301,0.2891 0.0274,0.30179 -0.0651,0.30179 -0.0925,0 -0.0952,-0.0127 -0.0651,-0.30179 z m 1.76116,1.03336 c 0.0766,0.0226 0.20155,-0.0876 0.27384,-0.15992 0.11231,-0.1123 0.13144,-0.16585 0.13144,-0.36787 0,-0.16451 -0.0258,-0.26925 -0.0849,-0.34434 -0.0742,-0.0943 -0.077,-0.11868 -0.0224,-0.19341 0.0387,-0.0529 0.0626,-0.19873 0.0626,-0.383 0,-0.43493 -0.0482,-0.46782 -0.68637,-0.46782 h -0.49842 l -0.0121,0.97241 -0.0121,0.97242 h 0.35295 c 0.19412,0 0.41872,-0.0511 0.49536,-0.0285 z m -0.39948,-0.55273 c 0,-0.2231 2.8e-4,-0.22354 0.14754,-0.22354 0.17769,0 0.25484,0.0676 0.25484,0.22354 0,0.15587 -0.0771,0.22353 -0.25484,0.22353 -0.14724,0 -0.14754,-3.5e-4 -0.14754,-0.22353 z m 0,-0.77957 c 0,-0.204 2e-5,-0.20402 0.15904,-0.20402 h 0.15905 l -0.0137,0.19 c -0.0129,0.17836 -0.0226,0.19087 -0.15904,0.20402 -0.14476,0.014 -0.14531,0.0132 -0.14531,-0.19 z"
         id="path389-5-3-5-6"
         inkscape:connector-curvature="0"
         sodipodi:nodetypes="cccccccccccscccccccccccccccccccccccscccccsccccccccccccccccccscccccccccccccccccccccccccccccccccccccccssccccccccccsccccccccccssccccccccccccccccccccccccccccccscscccccccscccccccccscsscccsccssscscscccccccc" />
    </g>
    <g
       inkscape:groupmode="layer"
       id="layer6"
       inkscape:label="Pictogram"
       style="display:inline" />
    <g
       inkscape:groupmode="layer"
       id="layer5"
       inkscape:label="Border"
       style="display:inline">
      <path
         style="display:inline;opacity:0.4;fill:none;fill-opacity:1;stroke:#000000;stroke-width:1;stroke-linecap:round;stroke-linejoin:round;stroke-miterlimit:4;stroke-dasharray:none;stroke-dashoffset:0;stroke-opacity:1;enable-background:new"
         d="m 341.12109,133.5 c 9.08109,0 10.37891,1.29458 10.37891,10.36719 v 8.26562 c 0,9.07258 -1.29782,10.36719 -10.37891,10.36719 H 330.87891 C 321.79783,162.5 320.5,161.20539 320.5,152.13281 v -8.26562 c 0,-9.07261 1.29783,-10.36719 10.37891,-10.36719 z"
         id="path950"
         inkscape:connector-curvature="0"
         sodipodi:nodetypes="sssssssss" />
      <path
         style="display:inline;opacity:0.4;fill:none;fill-opacity:1;stroke:#000000;stroke-width:1;stroke-linecap:round;stroke-linejoin:round;stroke-miterlimit:4;stroke-dasharray:none;stroke-dashoffset:0;stroke-opacity:1;enable-background:new"
         d="M 351.93164,62.5 C 365.55326,62.5 367.5,64.44187 367.5,78.05078 V 89.94922 C 367.5,103.55808 365.55326,105.5 351.93164,105.5 H 336.06836 C 322.44674,105.5 320.5,103.55808 320.5,89.94922 V 78.05078 C 320.5,64.44187 322.44674,62.5 336.06836,62.5 Z"
         id="path892"
         inkscape:connector-curvature="0"
         sodipodi:nodetypes="sssssssss" />
      <path
         sodipodi:nodetypes="sssssssss"
         inkscape:connector-curvature="0"
         id="path970"
         d="m 335.71582,189.50031 c 6.81081,10e-6 7.78418,0.97093 7.78418,7.77539 v 5.44891 c 0,6.80444 -0.97337,7.77539 -7.78418,7.77539 h -7.43164 c -6.81081,0 -7.78418,-0.97095 -7.78418,-7.77539 v -5.44892 c 0,-6.80446 0.97337,-7.7754 7.78418,-7.77539 z"
         style="display:inline;opacity:0.4;fill:none;fill-opacity:1;stroke:#000000;stroke-width:1;stroke-linecap:round;stroke-linejoin:round;stroke-miterlimit:4;stroke-dasharray:none;stroke-dashoffset:0;stroke-opacity:1;enable-background:new" />
      <path
         sodipodi:nodetypes="sssssssss"
         inkscape:connector-curvature="0"
         id="path1025"
         d="m 330.31054,236.5 c 4.54055,0 5.18946,0.64729 5.18946,5.18359 v 3.63282 c 0,4.53629 -0.64891,5.18359 -5.18946,5.18359 h -4.62109 c -4.54053,0 -5.18945,-0.6473 -5.18945,-5.18359 v -3.63282 c 0,-4.5363 0.64892,-5.18359 5.18946,-5.18359 z"
         style="display:inline;opacity:0.4;fill:none;fill-opacity:1;stroke:#000000;stroke-width:1;stroke-linecap:round;stroke-linejoin:round;stroke-miterlimit:4;stroke-dasharray:none;stroke-dashoffset:0;stroke-opacity:1;enable-background:new" />
      <path
         style="color:#000000;font-style:normal;font-variant:normal;font-weight:normal;font-stretch:normal;font-size:medium;line-height:normal;font-family:sans-serif;font-variant-ligatures:normal;font-variant-position:normal;font-variant-caps:normal;font-variant-numeric:normal;font-variant-alternates:normal;font-feature-settings:normal;text-indent:0;text-align:start;text-decoration:none;text-decoration-line:none;text-decoration-style:solid;text-decoration-color:#000000;letter-spacing:normal;word-spacing:normal;text-transform:none;writing-mode:lr-tb;direction:ltr;text-orientation:mixed;dominant-baseline:auto;baseline-shift:baseline;text-anchor:start;white-space:normal;shape-padding:0;clip-rule:nonzero;display:inline;overflow:visible;visibility:visible;opacity:0.3;isolation:auto;mix-blend-mode:normal;color-interpolation:sRGB;color-interpolation-filters:linearRGB;solid-color:#000000;solid-opacity:1;vector-effect:none;fill:none;fill-opacity:1;fill-rule:nonzero;stroke:url(#linearGradient929);stroke-width:1;stroke-linecap:round;stroke-linejoin:round;stroke-miterlimit:4;stroke-dasharray:none;stroke-dashoffset:0;stroke-opacity:1;color-rendering:auto;image-rendering:auto;shape-rendering:auto;text-rendering:auto;enable-background:accumulate"
         d="m 351.93164,63.5 h -15.86328 c -6.76329,0 -10.36307,0.55877 -12.18555,2.37891 -1.82247,1.82013 -2.38281,5.4151 -2.38281,12.17187 v 11.89844 c 0,6.75675 0.56034,10.35173 2.38281,12.17187 1.82248,1.82015 5.42226,2.37891 12.18555,2.37891 h 15.86328 c 6.76329,0 10.36307,-0.55876 12.18555,-2.37891 C 365.93966,100.30095 366.5,96.70597 366.5,89.94922 V 78.05078 c 0,-6.75677 -0.56034,-10.35174 -2.38281,-12.17187 C 362.29471,64.05877 358.69493,63.5 351.93164,63.5 Z"
         id="path911"
         inkscape:connector-curvature="0"
         sodipodi:nodetypes="sssssssssssss" />
      <path
         style="color:#000000;font-style:normal;font-variant:normal;font-weight:normal;font-stretch:normal;font-size:medium;line-height:normal;font-family:sans-serif;font-variant-ligatures:normal;font-variant-position:normal;font-variant-caps:normal;font-variant-numeric:normal;font-variant-alternates:normal;font-feature-settings:normal;text-indent:0;text-align:start;text-decoration:none;text-decoration-line:none;text-decoration-style:solid;text-decoration-color:#000000;letter-spacing:normal;word-spacing:normal;text-transform:none;writing-mode:lr-tb;direction:ltr;text-orientation:mixed;dominant-baseline:auto;baseline-shift:baseline;text-anchor:start;white-space:normal;shape-padding:0;clip-rule:nonzero;display:inline;overflow:visible;visibility:visible;opacity:0.3;isolation:auto;mix-blend-mode:normal;color-interpolation:sRGB;color-interpolation-filters:linearRGB;solid-color:#000000;solid-opacity:1;vector-effect:none;fill:none;fill-opacity:1;fill-rule:nonzero;stroke:url(#linearGradient965);stroke-width:1;stroke-linecap:round;stroke-linejoin:round;stroke-miterlimit:4;stroke-dasharray:none;stroke-dashoffset:0;stroke-opacity:1;color-rendering:auto;image-rendering:auto;shape-rendering:auto;text-rendering:auto;enable-background:accumulate"
         d="m 341.12109,134.5 h -10.24218 c -4.49302,0 -6.796,0.397 -7.88868,1.48828 -1.09267,1.09128 -1.49023,3.39029 -1.49023,7.87891 v 8.26562 c 0,4.48861 0.39755,6.78763 1.49023,7.87891 1.09268,1.09128 3.39566,1.48828 7.88868,1.48828 h 10.24218 c 4.49303,0 6.796,-0.397 7.88868,-1.48828 1.09268,-1.09128 1.49023,-3.3903 1.49023,-7.87891 v -8.26562 c 0,-4.48862 -0.39756,-6.78763 -1.49023,-7.87891 C 347.91709,134.897 345.61412,134.5 341.12109,134.5 Z"
         id="path955"
         inkscape:connector-curvature="0"
         sodipodi:nodetypes="sscssssscssss" />
      <path
         style="color:#000000;font-style:normal;font-variant:normal;font-weight:normal;font-stretch:normal;font-size:medium;line-height:normal;font-family:sans-serif;font-variant-ligatures:normal;font-variant-position:normal;font-variant-caps:normal;font-variant-numeric:normal;font-variant-alternates:normal;font-feature-settings:normal;text-indent:0;text-align:start;text-decoration:none;text-decoration-line:none;text-decoration-style:solid;text-decoration-color:#000000;letter-spacing:normal;word-spacing:normal;text-transform:none;writing-mode:lr-tb;direction:ltr;text-orientation:mixed;dominant-baseline:auto;baseline-shift:baseline;text-anchor:start;white-space:normal;shape-padding:0;clip-rule:nonzero;display:inline;overflow:visible;visibility:visible;opacity:0.3;isolation:auto;mix-blend-mode:normal;color-interpolation:sRGB;color-interpolation-filters:linearRGB;solid-color:#000000;solid-opacity:1;vector-effect:none;fill:none;fill-opacity:1;fill-rule:nonzero;stroke:url(#linearGradient1006);stroke-width:1;stroke-linecap:round;stroke-linejoin:round;stroke-miterlimit:4;stroke-dasharray:none;stroke-dashoffset:0;stroke-opacity:1;color-rendering:auto;image-rendering:auto;shape-rendering:auto;text-rendering:auto;enable-background:accumulate"
         d="m 335.71484,190.5 h -7.43164 c -3.35788,0 -5.0105,0.31612 -5.73828,1.04297 -0.72778,0.72685 -1.04492,2.37787 -1.04492,5.73242 v 5.44922 c 0,3.35454 0.31714,5.00557 1.04492,5.73242 0.72778,0.72685 2.38235,1.04297 5.74024,1.04297 h 7.42968 c 3.35789,0 5.01246,-0.31612 5.74024,-1.04297 0.72778,-0.72685 1.04492,-2.37788 1.04492,-5.73242 v -5.44922 c 0,-3.35455 -0.31714,-5.00558 -1.04492,-5.73242 C 340.7273,190.81612 339.07273,190.5 335.71484,190.5 Z"
         id="path974"
         inkscape:connector-curvature="0"
         sodipodi:nodetypes="ssssssssssscs" />
      <path
         style="color:#000000;font-style:normal;font-variant:normal;font-weight:normal;font-stretch:normal;font-size:medium;line-height:normal;font-family:sans-serif;font-variant-ligatures:normal;font-variant-position:normal;font-variant-caps:normal;font-variant-numeric:normal;font-variant-alternates:normal;font-feature-settings:normal;text-indent:0;text-align:start;text-decoration:none;text-decoration-line:none;text-decoration-style:solid;text-decoration-color:#000000;letter-spacing:normal;word-spacing:normal;text-transform:none;writing-mode:lr-tb;direction:ltr;text-orientation:mixed;dominant-baseline:auto;baseline-shift:baseline;text-anchor:start;white-space:normal;shape-padding:0;clip-rule:nonzero;display:inline;overflow:visible;visibility:visible;opacity:0.3;isolation:auto;mix-blend-mode:normal;color-interpolation:sRGB;color-interpolation-filters:linearRGB;solid-color:#000000;solid-opacity:1;vector-effect:none;fill:none;fill-opacity:1;fill-rule:nonzero;stroke:url(#linearGradient1045);stroke-width:1;stroke-linecap:round;stroke-linejoin:round;stroke-miterlimit:4;stroke-dasharray:none;stroke-dashoffset:0;stroke-opacity:1;color-rendering:auto;image-rendering:auto;shape-rendering:auto;text-rendering:auto;enable-background:accumulate"
         d="m 325.68945,237.5 h 4.6211 c 2.22275,0 3.22696,0.23524 3.58984,0.59766 0.36288,0.36241 0.59961,1.36547 0.59961,3.58593 v 3.63282 c 0,2.22046 -0.23673,3.22352 -0.59961,3.58593 -0.36288,0.36242 -1.36709,0.59766 -3.58984,0.59766 h -4.6211 c -2.22274,0 -3.22696,-0.23524 -3.58984,-0.59766 -0.36288,-0.36242 -0.59961,-1.36547 -0.59961,-3.58593 v -3.63282 c 0,-2.22046 0.23673,-3.22352 0.59961,-3.58593 0.36288,-0.36242 1.36709,-0.59766 3.58984,-0.59766 z"
         id="path1035"
         inkscape:connector-curvature="0"
         sodipodi:nodetypes="sscsscssssscs" />
    </g>
    <g
       inkscape:groupmode="layer"
       id="layer3"
       inkscape:label="Highlights"
       style="display:inline" />
  </g>
</svg>
